<svg width="676" height="790" viewBox="0 0 676 790" fill="none" xmlns="http://www.w3.org/2000/svg">
<path d="M65.2255 712.754C47.4921 715.287 36.4255 727.42 33.2255 748.22C32.1588 755.02 34.9588 765.02 39.8921 772.62C51.8921 790.754 77.6255 794.487 92.9588 780.354C97.4921 776.087 97.4921 773.687 93.0921 770.22L89.6255 767.42L83.3588 771.82C67.8921 782.62 47.3588 772.62 44.9588 753.02C43.6255 741.02 48.4255 732.22 59.3588 726.754C67.8921 722.354 72.6921 722.62 82.0255 727.687C88.6921 731.42 90.1588 731.687 93.0921 730.354C99.7588 727.287 96.4255 719.954 86.2921 715.82C78.0255 712.354 73.3588 711.687 65.2255 712.754Z" fill="black"/>
<path fill-rule="evenodd" clip-rule="evenodd" d="M148.146 734.588C153.08 723.255 157.88 713.522 158.68 712.988C163.08 710.188 165.48 712.855 171.613 727.255C174.013 733.122 180.146 747.122 185.213 758.455C190.146 769.788 194.28 780.322 194.28 782.055C194.28 784.855 191.213 789.255 189.213 789.255C186.28 789.255 182.146 784.455 179.48 777.922L176.413 770.588H147.88L144.146 778.188C141.746 782.855 138.813 786.722 136.546 787.922C133.08 789.788 132.68 789.788 130.28 786.855C127.346 783.388 127.746 781.788 134.68 765.922C135.103 764.942 135.627 763.731 136.228 762.341C139.225 755.411 144.148 744.028 148.146 734.588ZM163.517 733.162C162.921 731.314 160.305 731.314 159.71 733.162L152.063 756.892C151.647 758.183 152.61 759.505 153.967 759.505H169.26C170.617 759.505 171.58 758.183 171.163 756.892L163.517 733.162Z" fill="black"/>
<path d="M228.595 715.259C222.728 721.126 228.461 726.459 240.728 726.459H249.128V755.526C249.128 782.592 249.261 784.859 251.661 786.992C254.595 789.659 258.861 788.326 260.328 784.326C260.728 783.259 261.128 769.659 261.128 754.326V726.459H269.795C276.728 726.459 278.995 725.926 281.128 723.792C284.461 720.459 284.461 718.192 281.395 715.392C277.795 712.059 231.795 712.059 228.595 715.259Z" fill="black"/>
<path fill-rule="evenodd" clip-rule="evenodd" d="M335.254 734.588C340.187 723.255 344.987 713.522 345.787 712.988C350.187 710.188 352.587 712.855 358.72 727.255C361.12 733.122 367.254 747.122 372.32 758.455C377.254 769.788 381.387 780.322 381.387 782.055C381.387 784.855 378.32 789.255 376.32 789.255C373.387 789.255 369.254 784.455 366.587 777.922L363.52 770.588H334.987L331.254 778.188C328.854 782.855 325.92 786.722 323.654 787.922C320.187 789.788 319.787 789.788 317.387 786.855C314.454 783.388 314.854 781.788 321.787 765.922C322.21 764.942 322.734 763.731 323.335 762.341C326.333 755.411 331.256 744.028 335.254 734.588ZM350.624 733.162C350.029 731.314 347.413 731.314 346.817 733.162L339.171 756.892C338.754 758.183 339.717 759.505 341.074 759.505H356.367C357.724 759.505 358.687 758.183 358.271 756.892L350.624 733.162Z" fill="black"/>
<path d="M431.654 713.091C420.854 715.891 413.521 727.758 416.321 737.758C418.187 744.958 423.121 749.491 433.254 753.491C445.387 758.424 450.721 762.691 450.721 767.491C450.721 772.824 445.254 776.824 438.187 776.824C431.787 776.824 427.521 774.291 424.721 768.691C421.387 762.424 413.387 764.024 413.387 770.958C413.387 775.224 418.854 782.424 424.721 785.758C432.321 790.024 445.787 790.024 452.187 785.758C459.254 780.958 462.721 774.824 462.721 766.958C462.721 755.224 458.721 750.958 442.321 744.824C427.787 739.358 424.454 733.491 432.187 726.958C437.654 722.291 442.587 722.424 447.387 727.491C451.921 732.158 454.721 732.558 458.054 728.824C465.787 720.291 446.854 709.224 431.654 713.091Z" fill="black"/>
<path d="M496.671 715.711C491.871 722.511 496.004 726.111 508.271 726.111H517.204V756.111V786.111L520.537 787.711C523.337 788.911 524.271 788.777 526.537 786.777C529.071 784.511 529.204 782.644 529.204 755.177V726.111H537.604C546.671 726.111 548.004 725.577 550.271 721.311C551.471 719.177 551.337 717.844 549.737 715.711C547.737 712.911 546.804 712.777 523.204 712.777C499.337 712.777 498.671 712.911 496.671 715.711Z" fill="black"/>
<path fill-rule="evenodd" clip-rule="evenodd" d="M602.661 734.588C607.594 723.255 612.394 713.522 613.194 712.988C617.594 710.188 619.994 712.855 626.127 727.255C628.527 733.122 634.661 747.122 639.727 758.455C644.661 769.788 648.794 780.322 648.794 782.055C648.794 784.855 645.727 789.255 643.727 789.255C640.794 789.255 636.661 784.455 633.994 777.922L630.927 770.588H602.394L598.661 778.188C596.261 782.855 593.327 786.722 591.061 787.922C587.594 789.788 587.194 789.788 584.794 786.855C581.861 783.388 582.261 781.788 589.194 765.922C589.617 764.942 590.141 763.731 590.742 762.341C593.739 755.411 598.662 744.028 602.661 734.588ZM618.031 733.162C617.435 731.314 614.82 731.314 614.224 733.162L606.577 756.892C606.161 758.183 607.124 759.505 608.481 759.505H623.774C625.131 759.505 626.094 758.183 625.678 756.892L618.031 733.162Z" fill="black"/>
<path d="M17.1643 264.387C12.6221 261.903 14.3863 255 19.5634 255H653.776C659.11 255 660.737 262.234 655.918 264.518L620.05 281.518C619.381 281.835 618.649 282 617.909 282H50.6487C49.8102 282 48.9852 281.789 48.2496 281.387L17.1643 264.387Z" fill="black"/>
<line x1="25" y1="624.042" x2="25" y2="431" stroke="black" stroke-width="10"/>
<ellipse cx="25" cy="625" rx="12" ry="6" fill="black"/>
<path d="M25 247L25 5" stroke="black" stroke-width="10" stroke-linecap="round"/>
<ellipse cx="25" cy="248" rx="12" ry="6" fill="black"/>
<path d="M168 247L168 5" stroke="black" stroke-width="10" stroke-linecap="round"/>
<ellipse cx="168" cy="248" rx="12" ry="6" fill="black"/>
<path d="M524 247L524 5" stroke="black" stroke-width="10" stroke-linecap="round"/>
<ellipse cx="524" cy="248" rx="12" ry="6" fill="black"/>
<path d="M651 247L651 5" stroke="black" stroke-width="10" stroke-linecap="round"/>
<ellipse cx="651" cy="248" rx="12" ry="6" fill="black"/>
<line x1="168" y1="624.042" x2="168" y2="431" stroke="black" stroke-width="10"/>
<ellipse cx="168" cy="625" rx="12" ry="6" fill="black"/>
<line x1="221.5" y1="609.042" x2="221.5" y2="416" stroke="black" stroke-width="5"/>
<ellipse cx="222" cy="611" rx="10" ry="5" fill="black"/>
<line x1="469.5" y1="609.042" x2="469.5" y2="416" stroke="black" stroke-width="5"/>
<ellipse cx="470" cy="611" rx="10" ry="5" fill="black"/>
<line x1="264" y1="592.042" x2="264" y2="281.999" stroke="black" stroke-width="5"/>
<ellipse cx="265" cy="594" rx="10" ry="5" fill="black"/>
<path d="M221 247L221 28" stroke="black" stroke-width="5" stroke-linecap="round"/>
<ellipse cx="222" cy="249.001" rx="10" ry="5" fill="black"/>
<path d="M469 247L469 28" stroke="black" stroke-width="5" stroke-linecap="round"/>
<ellipse cx="470" cy="249.001" rx="10" ry="5" fill="black"/>
<line x1="420" y1="592.043" x2="420" y2="282" stroke="black" stroke-width="5"/>
<ellipse cx="421" cy="594.001" rx="10" ry="5" fill="black"/>
<line x1="523" y1="632.042" x2="523" y2="439" stroke="black" stroke-width="10"/>
<ellipse cx="523" cy="633" rx="12" ry="6" fill="black"/>
<line x1="651" y1="632.042" x2="651" y2="439" stroke="black" stroke-width="10"/>
<ellipse cx="651" cy="633" rx="12" ry="6" fill="black"/>
<line x1="24.998" y1="55.5" x2="168.002" y2="55.5" stroke="black" stroke-width="10"/>
<line x1="25" y1="202" x2="168.003" y2="202" stroke="black" stroke-width="10"/>
<line x1="529" y1="200" x2="672.003" y2="200" stroke="black" stroke-width="10"/>
<line x1="231.25" y1="265.835" x2="512.969" y2="428.486" stroke="black" stroke-width="5"/>
<line x1="178.75" y1="428.486" x2="460.469" y2="265.835" stroke="black" stroke-width="5"/>
<line x1="469.5" y1="275" x2="469.5" y2="431" stroke="black" stroke-width="5"/>
<line x1="221.5" y1="275" x2="221.5" y2="431" stroke="black" stroke-width="5"/>
<line x1="25.5" y1="426.001" x2="25.5" y2="262.998" stroke="black" stroke-width="10"/>
<line x1="168" y1="426.001" x2="168" y2="262.998" stroke="black" stroke-width="10"/>
<line x1="524" y1="426.001" x2="524" y2="262.998" stroke="black" stroke-width="10"/>
<line x1="651" y1="418.003" x2="651" y2="255" stroke="black" stroke-width="10"/>
<line x1="38" y1="559" x2="156.004" y2="559" stroke="black" stroke-width="10"/>
<line x1="21" y1="431" x2="651.029" y2="431" stroke="black" stroke-width="10"/>
<line x1="524" y1="559" x2="642.004" y2="559" stroke="black" stroke-width="10"/>
<line x1="285.382" y1="458.969" x2="449.969" y2="546.618" stroke="black" stroke-width="5" stroke-linecap="round"/>
<line x1="238.382" y1="79.9685" x2="446.685" y2="190.899" stroke="black" stroke-width="5" stroke-linecap="round"/>
<line x1="240.034" y1="546.509" x2="404.677" y2="458.966" stroke="black" stroke-width="5" stroke-linecap="round"/>
<line x1="240.034" y1="191.509" x2="448.409" y2="80.7136" stroke="black" stroke-width="5" stroke-linecap="round"/>
<line x1="515" y1="57" x2="658.003" y2="57" stroke="black" stroke-width="10"/>
<circle cx="25" cy="53" r="25" fill="#D9D9D9"/>
<path fill-rule="evenodd" clip-rule="evenodd" d="M17 67C30.8071 67 42 55.8071 42 42C42 38.9617 41.458 36.0501 40.4655 33.3564C36.2104 30.0017 30.8389 28 25 28C11.1929 28 0 39.1929 0 53C0 56.0383 0.541987 58.9499 1.53455 61.6436C5.78963 64.9983 11.1611 67 17 67Z" fill="white"/>
<circle cx="25" cy="53" r="23.5" stroke="black" stroke-width="3"/>
<circle cx="25" cy="199" r="25" fill="#D9D9D9"/>
<path fill-rule="evenodd" clip-rule="evenodd" d="M17 213C30.8071 213 42 201.807 42 188C42 184.962 41.458 182.05 40.4655 179.356C36.2104 176.002 30.8389 174 25 174C11.1929 174 0 185.193 0 199C0 202.038 0.541987 204.95 1.53455 207.644C5.78963 210.998 11.1611 213 17 213Z" fill="white"/>
<circle cx="25" cy="199" r="23.5" stroke="black" stroke-width="3"/>
<circle cx="25" cy="431" r="25" fill="#D9D9D9"/>
<path fill-rule="evenodd" clip-rule="evenodd" d="M17 445C30.8071 445 42 433.807 42 420C42 416.962 41.458 414.05 40.4655 411.356C36.2104 408.002 30.8389 406 25 406C11.1929 406 0 417.193 0 431C0 434.038 0.541987 436.95 1.53455 439.644C5.78963 442.998 11.1611 445 17 445Z" fill="white"/>
<circle cx="25" cy="431" r="23.5" stroke="black" stroke-width="3"/>
<circle cx="25" cy="558" r="25" fill="#D9D9D9"/>
<path fill-rule="evenodd" clip-rule="evenodd" d="M17 572C30.8071 572 42 560.807 42 547C42 543.962 41.458 541.05 40.4655 538.356C36.2104 535.002 30.8389 533 25 533C11.1929 533 0 544.193 0 558C0 561.038 0.541987 563.95 1.53455 566.644C5.78963 569.998 11.1611 572 17 572Z" fill="white"/>
<circle cx="25" cy="558" r="23.5" stroke="black" stroke-width="3"/>
<circle cx="168" cy="53" r="25" fill="#D9D9D9"/>
<path fill-rule="evenodd" clip-rule="evenodd" d="M160 67C173.807 67 185 55.8071 185 42C185 38.9617 184.458 36.0501 183.465 33.3564C179.21 30.0017 173.839 28 168 28C154.193 28 143 39.1929 143 53C143 56.0383 143.542 58.9499 144.535 61.6436C148.79 64.9983 154.161 67 160 67Z" fill="white"/>
<circle cx="168" cy="53" r="23.5" stroke="black" stroke-width="3"/>
<circle cx="168" cy="199" r="25" fill="#D9D9D9"/>
<path fill-rule="evenodd" clip-rule="evenodd" d="M160 213C173.807 213 185 201.807 185 188C185 184.962 184.458 182.05 183.465 179.356C179.21 176.002 173.839 174 168 174C154.193 174 143 185.193 143 199C143 202.038 143.542 204.95 144.535 207.644C148.79 210.998 154.161 213 160 213Z" fill="white"/>
<circle cx="168" cy="199" r="23.5" stroke="black" stroke-width="3"/>
<circle cx="168" cy="431" r="25" fill="#D9D9D9"/>
<path fill-rule="evenodd" clip-rule="evenodd" d="M160 445C173.807 445 185 433.807 185 420C185 416.962 184.458 414.05 183.465 411.356C179.21 408.002 173.839 406 168 406C154.193 406 143 417.193 143 431C143 434.038 143.542 436.95 144.535 439.644C148.79 442.998 154.161 445 160 445Z" fill="white"/>
<circle cx="168" cy="431" r="23.5" stroke="black" stroke-width="3"/>
<circle cx="168" cy="558" r="25" fill="#D9D9D9"/>
<path fill-rule="evenodd" clip-rule="evenodd" d="M160 572C173.807 572 185 560.807 185 547C185 543.962 184.458 541.05 183.465 538.356C179.21 535.002 173.839 533 168 533C154.193 533 143 544.193 143 558C143 561.038 143.542 563.95 144.535 566.644C148.79 569.998 154.161 572 160 572Z" fill="white"/>
<circle cx="168" cy="558" r="23.5" stroke="black" stroke-width="3"/>
<circle cx="524" cy="53" r="25" fill="#D9D9D9"/>
<path fill-rule="evenodd" clip-rule="evenodd" d="M516 67C529.807 67 541 55.8071 541 42C541 38.9617 540.458 36.0501 539.465 33.3564C535.21 30.0017 529.839 28 524 28C510.193 28 499 39.1929 499 53C499 56.0383 499.542 58.9499 500.535 61.6436C504.79 64.9983 510.161 67 516 67Z" fill="white"/>
<circle cx="524" cy="53" r="23.5" stroke="black" stroke-width="3"/>
<circle cx="524" cy="199" r="25" fill="#D9D9D9"/>
<path fill-rule="evenodd" clip-rule="evenodd" d="M516 213C529.807 213 541 201.807 541 188C541 184.962 540.458 182.05 539.465 179.356C535.21 176.002 529.839 174 524 174C510.193 174 499 185.193 499 199C499 202.038 499.542 204.95 500.535 207.644C504.79 210.998 510.161 213 516 213Z" fill="white"/>
<circle cx="524" cy="199" r="23.5" stroke="black" stroke-width="3"/>
<circle cx="524" cy="431" r="25" fill="#D9D9D9"/>
<path fill-rule="evenodd" clip-rule="evenodd" d="M516 445C529.807 445 541 433.807 541 420C541 416.962 540.458 414.05 539.465 411.356C535.21 408.002 529.839 406 524 406C510.193 406 499 417.193 499 431C499 434.038 499.542 436.95 500.535 439.644C504.79 442.998 510.161 445 516 445Z" fill="white"/>
<circle cx="524" cy="431" r="23.5" stroke="black" stroke-width="3"/>
<circle cx="524" cy="558" r="25" fill="#D9D9D9"/>
<path fill-rule="evenodd" clip-rule="evenodd" d="M516 572C529.807 572 541 560.807 541 547C541 543.962 540.458 541.05 539.465 538.356C535.21 535.002 529.839 533 524 533C510.193 533 499 544.193 499 558C499 561.038 499.542 563.95 500.535 566.644C504.79 569.998 510.161 572 516 572Z" fill="white"/>
<circle cx="524" cy="558" r="23.5" stroke="black" stroke-width="3"/>
<circle cx="651" cy="53" r="25" fill="#D9D9D9"/>
<path fill-rule="evenodd" clip-rule="evenodd" d="M643 67C656.807 67 668 55.8071 668 42C668 38.9617 667.458 36.0501 666.465 33.3564C662.21 30.0017 656.839 28 651 28C637.193 28 626 39.1929 626 53C626 56.0383 626.542 58.9499 627.535 61.6436C631.79 64.9983 637.161 67 643 67Z" fill="white"/>
<circle cx="651" cy="53" r="23.5" stroke="black" stroke-width="3"/>
<circle cx="651" cy="199" r="25" fill="#D9D9D9"/>
<path fill-rule="evenodd" clip-rule="evenodd" d="M643 213C656.807 213 668 201.807 668 188C668 184.962 667.458 182.05 666.465 179.356C662.21 176.002 656.839 174 651 174C637.193 174 626 185.193 626 199C626 202.038 626.542 204.95 627.535 207.644C631.79 210.998 637.161 213 643 213Z" fill="white"/>
<circle cx="651" cy="199" r="23.5" stroke="black" stroke-width="3"/>
<circle cx="651" cy="431" r="25" fill="#D9D9D9"/>
<path fill-rule="evenodd" clip-rule="evenodd" d="M643 445C656.807 445 668 433.807 668 420C668 416.962 667.458 414.05 666.465 411.356C662.21 408.002 656.839 406 651 406C637.193 406 626 417.193 626 431C626 434.038 626.542 436.95 627.535 439.644C631.79 442.998 637.161 445 643 445Z" fill="white"/>
<circle cx="651" cy="431" r="23.5" stroke="black" stroke-width="3"/>
<circle cx="651" cy="558" r="25" fill="#D9D9D9"/>
<path fill-rule="evenodd" clip-rule="evenodd" d="M643 572C656.807 572 668 560.807 668 547C668 543.962 667.458 541.05 666.465 538.356C662.21 535.002 656.839 533 651 533C637.193 533 626 544.193 626 558C626 561.038 626.542 563.95 627.535 566.644C631.79 569.998 637.161 572 643 572Z" fill="white"/>
<circle cx="651" cy="558" r="23.5" stroke="black" stroke-width="3"/>
<circle cx="221.5" cy="555.5" r="12.5" fill="#D9D9D9"/>
<path fill-rule="evenodd" clip-rule="evenodd" d="M215.5 560C222.404 560 228 554.404 228 547.5C228 546.511 227.885 545.548 227.668 544.625C225.848 543.591 223.743 543 221.5 543C214.596 543 209 548.596 209 555.5C209 556.489 209.115 557.452 209.332 558.375C211.152 559.409 213.257 560 215.5 560Z" fill="white"/>
<circle cx="221.5" cy="555.5" r="11" stroke="black" stroke-width="3"/>
<circle cx="221.5" cy="200.5" r="12.5" fill="#D9D9D9"/>
<path fill-rule="evenodd" clip-rule="evenodd" d="M215.5 205C222.404 205 228 199.404 228 192.5C228 191.511 227.885 190.548 227.668 189.625C225.848 188.591 223.743 188 221.5 188C214.596 188 209 193.596 209 200.5C209 201.489 209.115 202.452 209.332 203.375C211.152 204.409 213.257 205 215.5 205Z" fill="white"/>
<circle cx="221.5" cy="200.5" r="11" stroke="black" stroke-width="3"/>
<circle cx="265.5" cy="451.5" r="12.5" fill="#D9D9D9"/>
<path fill-rule="evenodd" clip-rule="evenodd" d="M259.5 456C266.404 456 272 450.404 272 443.5C272 442.511 271.885 441.548 271.668 440.625C269.848 439.591 267.743 439 265.5 439C258.596 439 253 444.596 253 451.5C253 452.489 253.115 453.452 253.332 454.375C255.152 455.409 257.257 456 259.5 456Z" fill="white"/>
<circle cx="265.5" cy="451.5" r="11" stroke="black" stroke-width="3"/>
<circle cx="221.5" cy="66.5" r="12.5" fill="#D9D9D9"/>
<path fill-rule="evenodd" clip-rule="evenodd" d="M215.5 71C222.404 71 228 65.4036 228 58.5C228 57.5107 227.885 56.5482 227.668 55.6252C225.848 54.5908 223.743 54 221.5 54C214.596 54 209 59.5964 209 66.5C209 67.4893 209.115 68.4518 209.332 69.3748C211.152 70.4092 213.257 71 215.5 71Z" fill="white"/>
<circle cx="221.5" cy="66.5" r="11" stroke="black" stroke-width="3"/>
<circle cx="420.5" cy="451.5" r="12.5" fill="#D9D9D9"/>
<path fill-rule="evenodd" clip-rule="evenodd" d="M414.5 456C421.404 456 427 450.404 427 443.5C427 442.511 426.885 441.548 426.668 440.625C424.848 439.591 422.743 439 420.5 439C413.596 439 408 444.596 408 451.5C408 452.489 408.115 453.452 408.332 454.375C410.152 455.409 412.257 456 414.5 456Z" fill="white"/>
<circle cx="420.5" cy="451.5" r="11" stroke="black" stroke-width="3"/>
<circle cx="469.5" cy="66.5" r="12.5" fill="#D9D9D9"/>
<path fill-rule="evenodd" clip-rule="evenodd" d="M463.5 71C470.404 71 476 65.4036 476 58.5C476 57.5107 475.885 56.5482 475.668 55.6252C473.848 54.5908 471.743 54 469.5 54C462.596 54 457 59.5964 457 66.5C457 67.4893 457.115 68.4518 457.332 69.3748C459.152 70.4092 461.257 71 463.5 71Z" fill="white"/>
<circle cx="469.5" cy="66.5" r="11" stroke="black" stroke-width="3"/>
<circle cx="469.5" cy="555.5" r="12.5" fill="#D9D9D9"/>
<path fill-rule="evenodd" clip-rule="evenodd" d="M463.5 560C470.404 560 476 554.404 476 547.5C476 546.511 475.885 545.548 475.668 544.625C473.848 543.591 471.743 543 469.5 543C462.596 543 457 548.596 457 555.5C457 556.489 457.115 557.452 457.332 558.375C459.152 559.409 461.257 560 463.5 560Z" fill="white"/>
<circle cx="469.5" cy="555.5" r="11" stroke="black" stroke-width="3"/>
<circle cx="469.5" cy="200.5" r="12.5" fill="#D9D9D9"/>
<path fill-rule="evenodd" clip-rule="evenodd" d="M463.5 205C470.404 205 476 199.404 476 192.5C476 191.511 475.885 190.548 475.668 189.625C473.848 188.591 471.743 188 469.5 188C462.596 188 457 193.596 457 200.5C457 201.489 457.115 202.452 457.332 203.375C459.152 204.409 461.257 205 463.5 205Z" fill="white"/>
<circle cx="469.5" cy="200.5" r="11" stroke="black" stroke-width="3"/>
</svg>
