<svg width="800" height="800" viewBox="0 0 800 800" fill="none" xmlns="http://www.w3.org/2000/svg">
<rect width="800" height="800" rx="180" fill="url(#paint0_linear_342_254)"/>
<line x1="84" y1="698.042" x2="84" y2="505" stroke="#2F2F2F" stroke-width="10"/>
<ellipse cx="84" cy="699" rx="12" ry="6" fill="#2F2F2F"/>
<path d="M84 321L84 79" stroke="#2F2F2F" stroke-width="10" stroke-linecap="round"/>
<ellipse cx="84" cy="322" rx="12" ry="6" fill="#2F2F2F"/>
<path d="M227 321L227 79" stroke="#2F2F2F" stroke-width="10" stroke-linecap="round"/>
<ellipse cx="227" cy="322" rx="12" ry="6" fill="#2F2F2F"/>
<path d="M583 321L583 79" stroke="#2F2F2F" stroke-width="10" stroke-linecap="round"/>
<ellipse cx="583" cy="322" rx="12" ry="6" fill="#2F2F2F"/>
<path d="M710 321L710 79" stroke="#2F2F2F" stroke-width="10" stroke-linecap="round"/>
<ellipse cx="710" cy="322" rx="12" ry="6" fill="#2F2F2F"/>
<line x1="227" y1="698.042" x2="227" y2="505" stroke="#2F2F2F" stroke-width="10"/>
<ellipse cx="227" cy="699" rx="12" ry="6" fill="#2F2F2F"/>
<line x1="280.5" y1="683.042" x2="280.5" y2="490" stroke="#2F2F2F" stroke-width="5"/>
<ellipse cx="281" cy="685" rx="10" ry="5" fill="#2F2F2F"/>
<line x1="528.5" y1="683.042" x2="528.5" y2="490" stroke="#2F2F2F" stroke-width="5"/>
<ellipse cx="529" cy="685" rx="10" ry="5" fill="#2F2F2F"/>
<line x1="322.5" y1="666" x2="322.5" y2="453" stroke="#2F2F2F" stroke-width="5"/>
<ellipse cx="324" cy="668" rx="10" ry="5" fill="#2F2F2F"/>
<path d="M280 321L280 102" stroke="#2F2F2F" stroke-width="5" stroke-linecap="round"/>
<ellipse cx="281" cy="323.001" rx="10" ry="5" fill="#2F2F2F"/>
<path d="M528 321L528 102" stroke="#2F2F2F" stroke-width="5" stroke-linecap="round"/>
<ellipse cx="529" cy="323.001" rx="10" ry="5" fill="#2F2F2F"/>
<line x1="479.5" y1="666" x2="479.5" y2="450" stroke="#2F2F2F" stroke-width="5"/>
<ellipse cx="480" cy="668.001" rx="10" ry="5" fill="#2F2F2F"/>
<line x1="582" y1="706.042" x2="582" y2="513" stroke="#2F2F2F" stroke-width="10"/>
<ellipse cx="582" cy="707" rx="12" ry="6" fill="#2F2F2F"/>
<line x1="710" y1="706.042" x2="710" y2="513" stroke="#2F2F2F" stroke-width="10"/>
<ellipse cx="710" cy="707" rx="12" ry="6" fill="#2F2F2F"/>
<path d="M83.998 129.5H227.002" stroke="#2F2F2F" stroke-width="10" stroke-linecap="round"/>
<path d="M84 276H227.003" stroke="#2F2F2F" stroke-width="10" stroke-linecap="round"/>
<path d="M588 274H731.003" stroke="#2F2F2F" stroke-width="10" stroke-linecap="round"/>
<path d="M281 337L571.951 502.475" stroke="#2F2F2F" stroke-width="5" stroke-linecap="round"/>
<path d="M237.75 502.486L528 337" stroke="#2F2F2F" stroke-width="5" stroke-linecap="round"/>
<path d="M528 337L528 505" stroke="#2F2F2F" stroke-width="5" stroke-linecap="round"/>
<path d="M280.5 337L280.5 505" stroke="#2F2F2F" stroke-width="5" stroke-linecap="round"/>
<path d="M84.5 500.001V336.998" stroke="#2F2F2F" stroke-width="10" stroke-linecap="round"/>
<path d="M227 500.001V336.998" stroke="#2F2F2F" stroke-width="10" stroke-linecap="round"/>
<path d="M583 500.001V336.998" stroke="#2F2F2F" stroke-width="10" stroke-linecap="round"/>
<path d="M710 492L710 337" stroke="#2F2F2F" stroke-width="10" stroke-linecap="round"/>
<path d="M97 633H215.004" stroke="#2F2F2F" stroke-width="10" stroke-linecap="round"/>
<path d="M80 505H710.029" stroke="#2F2F2F" stroke-width="10" stroke-linecap="round"/>
<path d="M583 633H701.004" stroke="#2F2F2F" stroke-width="10" stroke-linecap="round"/>
<line x1="344.382" y1="532.969" x2="508.969" y2="620.618" stroke="#2F2F2F" stroke-width="5" stroke-linecap="round"/>
<line x1="297.382" y1="153.969" x2="505.685" y2="264.899" stroke="#2F2F2F" stroke-width="5" stroke-linecap="round"/>
<line x1="299.034" y1="620.509" x2="463.677" y2="532.966" stroke="#2F2F2F" stroke-width="5" stroke-linecap="round"/>
<line x1="299.034" y1="265.509" x2="507.409" y2="154.714" stroke="#2F2F2F" stroke-width="5" stroke-linecap="round"/>
<path d="M574 131H717.003" stroke="#2F2F2F" stroke-width="10" stroke-linecap="round"/>
<circle cx="84" cy="127" r="25" fill="#E4CFBB"/>
<path fill-rule="evenodd" clip-rule="evenodd" d="M76 141C89.8071 141 101 129.807 101 116C101 112.962 100.458 110.05 99.4655 107.356C95.2104 104.002 89.8389 102 84 102C70.1929 102 59 113.193 59 127C59 130.038 59.542 132.95 60.5345 135.644C64.7896 138.998 70.1611 141 76 141Z" fill="#FFF8F0"/>
<circle cx="84" cy="127" r="23.5" stroke="#2F2F2F" stroke-width="3"/>
<circle cx="84" cy="273" r="25" fill="#E4CFBB"/>
<path fill-rule="evenodd" clip-rule="evenodd" d="M76 287C89.8071 287 101 275.807 101 262C101 258.962 100.458 256.05 99.4655 253.356C95.2104 250.002 89.8389 248 84 248C70.1929 248 59 259.193 59 273C59 276.038 59.542 278.95 60.5345 281.644C64.7896 284.998 70.1611 287 76 287Z" fill="#FFF8F0"/>
<circle cx="84" cy="273" r="23.5" stroke="#2F2F2F" stroke-width="3"/>
<circle cx="84" cy="505" r="25" fill="#E4CFBB"/>
<path fill-rule="evenodd" clip-rule="evenodd" d="M76 519C89.8071 519 101 507.807 101 494C101 490.962 100.458 488.05 99.4655 485.356C95.2104 482.002 89.8389 480 84 480C70.1929 480 59 491.193 59 505C59 508.038 59.542 510.95 60.5345 513.644C64.7896 516.998 70.1611 519 76 519Z" fill="#FFF8F0"/>
<circle cx="84" cy="505" r="23.5" stroke="#2F2F2F" stroke-width="3"/>
<circle cx="84" cy="632" r="25" fill="#E4CFBB"/>
<path fill-rule="evenodd" clip-rule="evenodd" d="M76 646C89.8071 646 101 634.807 101 621C101 617.962 100.458 615.05 99.4655 612.356C95.2104 609.002 89.8389 607 84 607C70.1929 607 59 618.193 59 632C59 635.038 59.542 637.95 60.5345 640.644C64.7896 643.998 70.1611 646 76 646Z" fill="#FFF8F0"/>
<circle cx="84" cy="632" r="23.5" stroke="#2F2F2F" stroke-width="3"/>
<circle cx="227" cy="127" r="25" fill="#E4CFBB"/>
<path fill-rule="evenodd" clip-rule="evenodd" d="M219 141C232.807 141 244 129.807 244 116C244 112.962 243.458 110.05 242.465 107.356C238.21 104.002 232.839 102 227 102C213.193 102 202 113.193 202 127C202 130.038 202.542 132.95 203.535 135.644C207.79 138.998 213.161 141 219 141Z" fill="#FFF8F0"/>
<circle cx="227" cy="127" r="23.5" stroke="#2F2F2F" stroke-width="3"/>
<circle cx="227" cy="273" r="25" fill="#E4CFBB"/>
<path fill-rule="evenodd" clip-rule="evenodd" d="M219 287C232.807 287 244 275.807 244 262C244 258.962 243.458 256.05 242.465 253.356C238.21 250.002 232.839 248 227 248C213.193 248 202 259.193 202 273C202 276.038 202.542 278.95 203.535 281.644C207.79 284.998 213.161 287 219 287Z" fill="#FFF8F0"/>
<circle cx="227" cy="273" r="23.5" stroke="#2F2F2F" stroke-width="3"/>
<circle cx="227" cy="505" r="25" fill="#E4CFBB"/>
<path fill-rule="evenodd" clip-rule="evenodd" d="M219 519C232.807 519 244 507.807 244 494C244 490.962 243.458 488.05 242.465 485.356C238.21 482.002 232.839 480 227 480C213.193 480 202 491.193 202 505C202 508.038 202.542 510.95 203.535 513.644C207.79 516.998 213.161 519 219 519Z" fill="#FFF8F0"/>
<circle cx="227" cy="505" r="23.5" stroke="#2F2F2F" stroke-width="3"/>
<circle cx="227" cy="632" r="25" fill="#E4CFBB"/>
<path fill-rule="evenodd" clip-rule="evenodd" d="M219 646C232.807 646 244 634.807 244 621C244 617.962 243.458 615.05 242.465 612.356C238.21 609.002 232.839 607 227 607C213.193 607 202 618.193 202 632C202 635.038 202.542 637.95 203.535 640.644C207.79 643.998 213.161 646 219 646Z" fill="#FFF8F0"/>
<circle cx="227" cy="632" r="23.5" stroke="#2F2F2F" stroke-width="3"/>
<circle cx="583" cy="127" r="25" fill="#E4CFBB"/>
<path fill-rule="evenodd" clip-rule="evenodd" d="M575 141C588.807 141 600 129.807 600 116C600 112.962 599.458 110.05 598.465 107.356C594.21 104.002 588.839 102 583 102C569.193 102 558 113.193 558 127C558 130.038 558.542 132.95 559.535 135.644C563.79 138.998 569.161 141 575 141Z" fill="#FFF8F0"/>
<circle cx="583" cy="127" r="23.5" stroke="#2F2F2F" stroke-width="3"/>
<circle cx="583" cy="273" r="25" fill="#E4CFBB"/>
<path fill-rule="evenodd" clip-rule="evenodd" d="M575 287C588.807 287 600 275.807 600 262C600 258.962 599.458 256.05 598.465 253.356C594.21 250.002 588.839 248 583 248C569.193 248 558 259.193 558 273C558 276.038 558.542 278.95 559.535 281.644C563.79 284.998 569.161 287 575 287Z" fill="#FFF8F0"/>
<circle cx="583" cy="273" r="23.5" stroke="#2F2F2F" stroke-width="3"/>
<circle cx="583" cy="505" r="25" fill="#E4CFBB"/>
<path fill-rule="evenodd" clip-rule="evenodd" d="M575 519C588.807 519 600 507.807 600 494C600 490.962 599.458 488.05 598.465 485.356C594.21 482.002 588.839 480 583 480C569.193 480 558 491.193 558 505C558 508.038 558.542 510.95 559.535 513.644C563.79 516.998 569.161 519 575 519Z" fill="#FFF8F0"/>
<circle cx="583" cy="505" r="23.5" stroke="#2F2F2F" stroke-width="3"/>
<circle cx="405" cy="405" r="25" fill="#E4CFBB"/>
<path fill-rule="evenodd" clip-rule="evenodd" d="M397 419C410.807 419 422 407.807 422 394C422 390.962 421.458 388.05 420.465 385.356C416.21 382.002 410.839 380 405 380C391.193 380 380 391.193 380 405C380 408.038 380.542 410.95 381.535 413.644C385.79 416.998 391.161 419 397 419Z" fill="#FFF8F0"/>
<circle cx="405" cy="405" r="23.5" stroke="#2F2F2F" stroke-width="3"/>
<circle cx="583" cy="632" r="25" fill="#E4CFBB"/>
<path fill-rule="evenodd" clip-rule="evenodd" d="M575 646C588.807 646 600 634.807 600 621C600 617.962 599.458 615.05 598.465 612.356C594.21 609.002 588.839 607 583 607C569.193 607 558 618.193 558 632C558 635.038 558.542 637.95 559.535 640.644C563.79 643.998 569.161 646 575 646Z" fill="#FFF8F0"/>
<circle cx="583" cy="632" r="23.5" stroke="#2F2F2F" stroke-width="3"/>
<circle cx="710" cy="127" r="25" fill="#E4CFBB"/>
<path fill-rule="evenodd" clip-rule="evenodd" d="M702 141C715.807 141 727 129.807 727 116C727 112.962 726.458 110.05 725.465 107.356C721.21 104.002 715.839 102 710 102C696.193 102 685 113.193 685 127C685 130.038 685.542 132.95 686.535 135.644C690.79 138.998 696.161 141 702 141Z" fill="#FFF8F0"/>
<circle cx="710" cy="127" r="23.5" stroke="#2F2F2F" stroke-width="3"/>
<circle cx="710" cy="273" r="25" fill="#E4CFBB"/>
<path fill-rule="evenodd" clip-rule="evenodd" d="M702 287C715.807 287 727 275.807 727 262C727 258.962 726.458 256.05 725.465 253.356C721.21 250.002 715.839 248 710 248C696.193 248 685 259.193 685 273C685 276.038 685.542 278.95 686.535 281.644C690.79 284.998 696.161 287 702 287Z" fill="#FFF8F0"/>
<circle cx="710" cy="273" r="23.5" stroke="#2F2F2F" stroke-width="3"/>
<circle cx="710" cy="505" r="25" fill="#E4CFBB"/>
<path fill-rule="evenodd" clip-rule="evenodd" d="M702 519C715.807 519 727 507.807 727 494C727 490.962 726.458 488.05 725.465 485.356C721.21 482.002 715.839 480 710 480C696.193 480 685 491.193 685 505C685 508.038 685.542 510.95 686.535 513.644C690.79 516.998 696.161 519 702 519Z" fill="#FFF8F0"/>
<circle cx="710" cy="505" r="23.5" stroke="#2F2F2F" stroke-width="3"/>
<circle cx="710" cy="632" r="25" fill="#E4CFBB"/>
<path fill-rule="evenodd" clip-rule="evenodd" d="M702 646C715.807 646 727 634.807 727 621C727 617.962 726.458 615.05 725.465 612.356C721.21 609.002 715.839 607 710 607C696.193 607 685 618.193 685 632C685 635.038 685.542 637.95 686.535 640.644C690.79 643.998 696.161 646 702 646Z" fill="#FFF8F0"/>
<circle cx="710" cy="632" r="23.5" stroke="#2F2F2F" stroke-width="3"/>
<circle cx="280.5" cy="629.5" r="12.5" fill="#E4CFBB"/>
<path fill-rule="evenodd" clip-rule="evenodd" d="M274.5 634C281.404 634 287 628.404 287 621.5C287 620.511 286.885 619.548 286.668 618.625C284.848 617.591 282.743 617 280.5 617C273.596 617 268 622.596 268 629.5C268 630.489 268.115 631.452 268.332 632.375C270.152 633.409 272.257 634 274.5 634Z" fill="#FFF8F0"/>
<circle cx="280.5" cy="629.5" r="11" stroke="#2F2F2F" stroke-width="3"/>
<circle cx="280.5" cy="274.5" r="12.5" fill="#E4CFBB"/>
<path fill-rule="evenodd" clip-rule="evenodd" d="M274.5 279C281.404 279 287 273.404 287 266.5C287 265.511 286.885 264.548 286.668 263.625C284.848 262.591 282.743 262 280.5 262C273.596 262 268 267.596 268 274.5C268 275.489 268.115 276.452 268.332 277.375C270.152 278.409 272.257 279 274.5 279Z" fill="#FFF8F0"/>
<circle cx="280.5" cy="274.5" r="11" stroke="#2F2F2F" stroke-width="3"/>
<circle cx="322.5" cy="525.5" r="12.5" fill="#E4CFBB"/>
<path fill-rule="evenodd" clip-rule="evenodd" d="M316.5 530C323.404 530 329 524.404 329 517.5C329 516.511 328.885 515.548 328.668 514.625C326.848 513.591 324.743 513 322.5 513C315.596 513 310 518.596 310 525.5C310 526.489 310.115 527.452 310.332 528.375C312.152 529.409 314.257 530 316.5 530Z" fill="#FFF8F0"/>
<circle cx="322.5" cy="525.5" r="11" stroke="#2F2F2F" stroke-width="3"/>
<circle cx="280.5" cy="140.5" r="12.5" fill="#E4CFBB"/>
<path fill-rule="evenodd" clip-rule="evenodd" d="M274.5 145C281.404 145 287 139.404 287 132.5C287 131.511 286.885 130.548 286.668 129.625C284.848 128.591 282.743 128 280.5 128C273.596 128 268 133.596 268 140.5C268 141.489 268.115 142.452 268.332 143.375C270.152 144.409 272.257 145 274.5 145Z" fill="#FFF8F0"/>
<circle cx="280.5" cy="140.5" r="11" stroke="#2F2F2F" stroke-width="3"/>
<circle cx="479.5" cy="525.5" r="12.5" fill="#E4CFBB"/>
<path fill-rule="evenodd" clip-rule="evenodd" d="M473.5 530C480.404 530 486 524.404 486 517.5C486 516.511 485.885 515.548 485.668 514.625C483.848 513.591 481.743 513 479.5 513C472.596 513 467 518.596 467 525.5C467 526.489 467.115 527.452 467.332 528.375C469.152 529.409 471.257 530 473.5 530Z" fill="#FFF8F0"/>
<circle cx="479.5" cy="525.5" r="11" stroke="#2F2F2F" stroke-width="3"/>
<circle cx="528.5" cy="140.5" r="12.5" fill="#E4CFBB"/>
<path fill-rule="evenodd" clip-rule="evenodd" d="M522.5 145C529.404 145 535 139.404 535 132.5C535 131.511 534.885 130.548 534.668 129.625C532.848 128.591 530.743 128 528.5 128C521.596 128 516 133.596 516 140.5C516 141.489 516.115 142.452 516.332 143.375C518.152 144.409 520.257 145 522.5 145Z" fill="#FFF8F0"/>
<circle cx="528.5" cy="140.5" r="11" stroke="#2F2F2F" stroke-width="3"/>
<circle cx="528.5" cy="629.5" r="12.5" fill="#E4CFBB"/>
<path fill-rule="evenodd" clip-rule="evenodd" d="M522.5 634C529.404 634 535 628.404 535 621.5C535 620.511 534.885 619.548 534.668 618.625C532.848 617.591 530.743 617 528.5 617C521.596 617 516 622.596 516 629.5C516 630.489 516.115 631.452 516.332 632.375C518.152 633.409 520.257 634 522.5 634Z" fill="#FFF8F0"/>
<circle cx="528.5" cy="629.5" r="11" stroke="#2F2F2F" stroke-width="3"/>
<circle cx="528.5" cy="274.5" r="12.5" fill="#E4CFBB"/>
<path fill-rule="evenodd" clip-rule="evenodd" d="M522.5 279C529.404 279 535 273.404 535 266.5C535 265.511 534.885 264.548 534.668 263.625C532.848 262.591 530.743 262 528.5 262C521.596 262 516 267.596 516 274.5C516 275.489 516.115 276.452 516.332 277.375C518.152 278.409 520.257 279 522.5 279Z" fill="#FFF8F0"/>
<circle cx="528.5" cy="274.5" r="11" stroke="#2F2F2F" stroke-width="3"/>
<defs>
<linearGradient id="paint0_linear_342_254" x1="400" y1="0" x2="400" y2="800" gradientUnits="userSpaceOnUse">
<stop offset="0.145833" stop-color="#FDF1EB"/>
<stop offset="1" stop-color="#E4CFBB" stop-opacity="0.89"/>
<stop offset="1" stop-color="#E4CFBB"/>
</linearGradient>
</defs>
</svg>
