<svg width="720" height="832" viewBox="0 0 720 832" fill="none" xmlns="http://www.w3.org/2000/svg">
<path d="M89.2255 754.754C71.4921 757.287 60.4255 769.42 57.2255 790.22C56.1588 797.02 58.9588 807.02 63.8921 814.62C75.8921 832.754 101.625 836.487 116.959 822.354C121.492 818.087 121.492 815.687 117.092 812.22L113.625 809.42L107.359 813.82C91.8921 824.62 71.3588 814.62 68.9588 795.02C67.6255 783.02 72.4255 774.22 83.3588 768.754C91.8921 764.354 96.6921 764.62 106.025 769.687C112.692 773.42 114.159 773.687 117.092 772.354C123.759 769.287 120.425 761.954 110.292 757.82C102.025 754.354 97.3588 753.687 89.2255 754.754Z" fill="black"/>
<path fill-rule="evenodd" clip-rule="evenodd" d="M172.146 776.588C177.08 765.255 181.88 755.522 182.68 754.988C187.08 752.188 189.48 754.855 195.613 769.255C198.013 775.122 204.146 789.122 209.213 800.455C214.146 811.788 218.28 822.322 218.28 824.055C218.28 826.855 215.213 831.255 213.213 831.255C210.28 831.255 206.146 826.455 203.48 819.922L200.413 812.588H171.88L168.146 820.188C165.746 824.855 162.813 828.722 160.546 829.922C157.08 831.788 156.68 831.788 154.28 828.855C151.346 825.388 151.746 823.788 158.68 807.922C159.103 806.942 159.627 805.731 160.228 804.341C163.225 797.411 168.148 786.028 172.146 776.588ZM187.517 775.162C186.921 773.314 184.305 773.314 183.71 775.162L176.063 798.892C175.647 800.183 176.61 801.505 177.967 801.505H193.26C194.617 801.505 195.58 800.183 195.163 798.892L187.517 775.162Z" fill="black"/>
<path d="M252.595 757.259C246.728 763.126 252.461 768.459 264.728 768.459H273.128V797.526C273.128 824.592 273.261 826.859 275.661 828.992C278.595 831.659 282.861 830.326 284.328 826.326C284.728 825.259 285.128 811.659 285.128 796.326V768.459H293.795C300.728 768.459 302.995 767.926 305.128 765.792C308.461 762.459 308.461 760.192 305.395 757.392C301.795 754.059 255.795 754.059 252.595 757.259Z" fill="black"/>
<path fill-rule="evenodd" clip-rule="evenodd" d="M359.254 776.588C364.187 765.255 368.987 755.522 369.787 754.988C374.187 752.188 376.587 754.855 382.72 769.255C385.12 775.122 391.254 789.122 396.32 800.455C401.254 811.788 405.387 822.322 405.387 824.055C405.387 826.855 402.32 831.255 400.32 831.255C397.387 831.255 393.254 826.455 390.587 819.922L387.52 812.588H358.987L355.254 820.188C352.854 824.855 349.92 828.722 347.654 829.922C344.187 831.788 343.787 831.788 341.387 828.855C338.454 825.388 338.854 823.788 345.787 807.922C346.21 806.942 346.734 805.731 347.335 804.341C350.333 797.411 355.256 786.028 359.254 776.588ZM374.624 775.162C374.029 773.314 371.413 773.314 370.817 775.162L363.171 798.892C362.754 800.183 363.717 801.505 365.074 801.505H380.367C381.724 801.505 382.687 800.183 382.271 798.892L374.624 775.162Z" fill="black"/>
<path d="M455.654 755.091C444.854 757.891 437.521 769.758 440.321 779.758C442.187 786.958 447.121 791.491 457.254 795.491C469.387 800.424 474.721 804.691 474.721 809.491C474.721 814.824 469.254 818.824 462.187 818.824C455.787 818.824 451.521 816.291 448.721 810.691C445.387 804.424 437.387 806.024 437.387 812.958C437.387 817.224 442.854 824.424 448.721 827.758C456.321 832.024 469.787 832.024 476.187 827.758C483.254 822.958 486.721 816.824 486.721 808.958C486.721 797.224 482.721 792.958 466.321 786.824C451.787 781.358 448.454 775.491 456.187 768.958C461.654 764.291 466.587 764.424 471.387 769.491C475.921 774.158 478.721 774.558 482.054 770.824C489.787 762.291 470.854 751.224 455.654 755.091Z" fill="black"/>
<path d="M520.671 757.711C515.871 764.511 520.004 768.111 532.271 768.111H541.204V798.111V828.111L544.537 829.711C547.337 830.911 548.271 830.777 550.538 828.777C553.071 826.511 553.204 824.644 553.204 797.177V768.111H561.604C570.671 768.111 572.004 767.577 574.271 763.311C575.471 761.177 575.337 759.844 573.737 757.711C571.737 754.911 570.804 754.777 547.204 754.777C523.337 754.777 522.671 754.911 520.671 757.711Z" fill="black"/>
<path fill-rule="evenodd" clip-rule="evenodd" d="M626.661 776.588C631.594 765.255 636.394 755.522 637.194 754.988C641.594 752.188 643.994 754.855 650.127 769.255C652.527 775.122 658.661 789.122 663.727 800.455C668.661 811.788 672.794 822.322 672.794 824.055C672.794 826.855 669.727 831.255 667.727 831.255C664.794 831.255 660.661 826.455 657.994 819.922L654.927 812.588H626.394L622.661 820.188C620.261 824.855 617.327 828.722 615.061 829.922C611.594 831.788 611.194 831.788 608.794 828.855C605.861 825.388 606.261 823.788 613.194 807.922C613.617 806.942 614.141 805.731 614.742 804.341C617.739 797.411 622.662 786.028 626.661 776.588ZM642.031 775.162C641.435 773.314 638.82 773.314 638.224 775.162L630.577 798.892C630.161 800.183 631.124 801.505 632.481 801.505H647.774C649.131 801.505 650.094 800.183 649.678 798.892L642.031 775.162Z" fill="black"/>
<path d="M41.1643 306.387C36.6221 303.903 38.3863 297 43.5634 297H677.776C683.11 297 684.737 304.234 679.918 306.518L644.05 323.518C643.381 323.835 642.649 324 641.909 324H74.6487C73.8102 324 72.9852 323.789 72.2496 323.387L41.1643 306.387Z" fill="black"/>
<rect width="720" height="720" rx="20" fill="#ECECEC"/>
<line x1="49" y1="666.042" x2="49" y2="473" stroke="black" stroke-width="10"/>
<ellipse cx="49" cy="667" rx="12" ry="6" fill="black"/>
<path d="M49 289L49 47" stroke="black" stroke-width="10" stroke-linecap="round"/>
<ellipse cx="49" cy="290" rx="12" ry="6" fill="black"/>
<path d="M192 289L192 47" stroke="black" stroke-width="10" stroke-linecap="round"/>
<ellipse cx="192" cy="290" rx="12" ry="6" fill="black"/>
<path d="M548 289L548 47" stroke="black" stroke-width="10" stroke-linecap="round"/>
<ellipse cx="548" cy="290" rx="12" ry="6" fill="black"/>
<path d="M675 289L675 47" stroke="black" stroke-width="10" stroke-linecap="round"/>
<ellipse cx="675" cy="290" rx="12" ry="6" fill="black"/>
<line x1="192" y1="666.042" x2="192" y2="473" stroke="black" stroke-width="10"/>
<ellipse cx="192" cy="667" rx="12" ry="6" fill="black"/>
<line x1="245.5" y1="651.042" x2="245.5" y2="458" stroke="black" stroke-width="5"/>
<ellipse cx="246" cy="653" rx="10" ry="5" fill="black"/>
<line x1="493.5" y1="651.042" x2="493.5" y2="458" stroke="black" stroke-width="5"/>
<ellipse cx="494" cy="653" rx="10" ry="5" fill="black"/>
<line x1="288" y1="634.042" x2="288" y2="323.999" stroke="black" stroke-width="5"/>
<ellipse cx="289" cy="636" rx="10" ry="5" fill="black"/>
<path d="M245 289L245 70" stroke="black" stroke-width="5" stroke-linecap="round"/>
<ellipse cx="246" cy="291.001" rx="10" ry="5" fill="black"/>
<path d="M493 289L493 70" stroke="black" stroke-width="5" stroke-linecap="round"/>
<ellipse cx="494" cy="291.001" rx="10" ry="5" fill="black"/>
<line x1="444" y1="634.043" x2="444" y2="324" stroke="black" stroke-width="5"/>
<ellipse cx="445" cy="636.001" rx="10" ry="5" fill="black"/>
<line x1="547" y1="674.042" x2="547" y2="481" stroke="black" stroke-width="10"/>
<ellipse cx="547" cy="675" rx="12" ry="6" fill="black"/>
<line x1="675" y1="674.042" x2="675" y2="481" stroke="black" stroke-width="10"/>
<ellipse cx="675" cy="675" rx="12" ry="6" fill="black"/>
<line x1="48.998" y1="97.5" x2="192.002" y2="97.5" stroke="black" stroke-width="10"/>
<line x1="49" y1="244" x2="192.003" y2="244" stroke="black" stroke-width="10"/>
<line x1="553" y1="242" x2="696.003" y2="242" stroke="black" stroke-width="10"/>
<line x1="255.25" y1="307.835" x2="536.969" y2="470.486" stroke="black" stroke-width="5"/>
<line x1="202.75" y1="470.486" x2="484.469" y2="307.835" stroke="black" stroke-width="5"/>
<line x1="493.5" y1="317" x2="493.5" y2="473" stroke="black" stroke-width="5"/>
<line x1="245.5" y1="317" x2="245.5" y2="473" stroke="black" stroke-width="5"/>
<line x1="49.5" y1="468.001" x2="49.5" y2="304.998" stroke="black" stroke-width="10"/>
<line x1="192" y1="468.001" x2="192" y2="304.998" stroke="black" stroke-width="10"/>
<line x1="548" y1="468.001" x2="548" y2="304.998" stroke="black" stroke-width="10"/>
<line x1="675" y1="460.003" x2="675" y2="297" stroke="black" stroke-width="10"/>
<line x1="62" y1="601" x2="180.004" y2="601" stroke="black" stroke-width="10"/>
<line x1="45" y1="473" x2="675.029" y2="473" stroke="black" stroke-width="10"/>
<line x1="548" y1="601" x2="666.004" y2="601" stroke="black" stroke-width="10"/>
<line x1="309.382" y1="500.969" x2="473.969" y2="588.618" stroke="black" stroke-width="5" stroke-linecap="round"/>
<line x1="262.382" y1="121.969" x2="470.685" y2="232.899" stroke="black" stroke-width="5" stroke-linecap="round"/>
<line x1="264.034" y1="588.509" x2="428.677" y2="500.966" stroke="black" stroke-width="5" stroke-linecap="round"/>
<line x1="264.034" y1="233.509" x2="472.409" y2="122.714" stroke="black" stroke-width="5" stroke-linecap="round"/>
<line x1="539" y1="99" x2="682.003" y2="99" stroke="black" stroke-width="10"/>
<circle cx="49" cy="95" r="25" fill="#D9D9D9"/>
<path fill-rule="evenodd" clip-rule="evenodd" d="M41 109C54.8071 109 66 97.8071 66 84C66 80.9617 65.458 78.0501 64.4655 75.3564C60.2104 72.0017 54.8389 70 49 70C35.1929 70 24 81.1929 24 95C24 98.0383 24.542 100.95 25.5345 103.644C29.7896 106.998 35.1611 109 41 109Z" fill="white"/>
<circle cx="49" cy="95" r="23.5" stroke="black" stroke-width="3"/>
<circle cx="49" cy="241" r="25" fill="#D9D9D9"/>
<path fill-rule="evenodd" clip-rule="evenodd" d="M41 255C54.8071 255 66 243.807 66 230C66 226.962 65.458 224.05 64.4655 221.356C60.2104 218.002 54.8389 216 49 216C35.1929 216 24 227.193 24 241C24 244.038 24.542 246.95 25.5345 249.644C29.7896 252.998 35.1611 255 41 255Z" fill="white"/>
<circle cx="49" cy="241" r="23.5" stroke="black" stroke-width="3"/>
<circle cx="49" cy="473" r="25" fill="#D9D9D9"/>
<path fill-rule="evenodd" clip-rule="evenodd" d="M41 487C54.8071 487 66 475.807 66 462C66 458.962 65.458 456.05 64.4655 453.356C60.2104 450.002 54.8389 448 49 448C35.1929 448 24 459.193 24 473C24 476.038 24.542 478.95 25.5345 481.644C29.7896 484.998 35.1611 487 41 487Z" fill="white"/>
<circle cx="49" cy="473" r="23.5" stroke="black" stroke-width="3"/>
<circle cx="49" cy="600" r="25" fill="#D9D9D9"/>
<path fill-rule="evenodd" clip-rule="evenodd" d="M41 614C54.8071 614 66 602.807 66 589C66 585.962 65.458 583.05 64.4655 580.356C60.2104 577.002 54.8389 575 49 575C35.1929 575 24 586.193 24 600C24 603.038 24.542 605.95 25.5345 608.644C29.7896 611.998 35.1611 614 41 614Z" fill="white"/>
<circle cx="49" cy="600" r="23.5" stroke="black" stroke-width="3"/>
<circle cx="192" cy="95" r="25" fill="#D9D9D9"/>
<path fill-rule="evenodd" clip-rule="evenodd" d="M184 109C197.807 109 209 97.8071 209 84C209 80.9617 208.458 78.0501 207.465 75.3564C203.21 72.0017 197.839 70 192 70C178.193 70 167 81.1929 167 95C167 98.0383 167.542 100.95 168.535 103.644C172.79 106.998 178.161 109 184 109Z" fill="white"/>
<circle cx="192" cy="95" r="23.5" stroke="black" stroke-width="3"/>
<circle cx="192" cy="241" r="25" fill="#D9D9D9"/>
<path fill-rule="evenodd" clip-rule="evenodd" d="M184 255C197.807 255 209 243.807 209 230C209 226.962 208.458 224.05 207.465 221.356C203.21 218.002 197.839 216 192 216C178.193 216 167 227.193 167 241C167 244.038 167.542 246.95 168.535 249.644C172.79 252.998 178.161 255 184 255Z" fill="white"/>
<circle cx="192" cy="241" r="23.5" stroke="black" stroke-width="3"/>
<circle cx="192" cy="473" r="25" fill="#D9D9D9"/>
<path fill-rule="evenodd" clip-rule="evenodd" d="M184 487C197.807 487 209 475.807 209 462C209 458.962 208.458 456.05 207.465 453.356C203.21 450.002 197.839 448 192 448C178.193 448 167 459.193 167 473C167 476.038 167.542 478.95 168.535 481.644C172.79 484.998 178.161 487 184 487Z" fill="white"/>
<circle cx="192" cy="473" r="23.5" stroke="black" stroke-width="3"/>
<circle cx="192" cy="600" r="25" fill="#D9D9D9"/>
<path fill-rule="evenodd" clip-rule="evenodd" d="M184 614C197.807 614 209 602.807 209 589C209 585.962 208.458 583.05 207.465 580.356C203.21 577.002 197.839 575 192 575C178.193 575 167 586.193 167 600C167 603.038 167.542 605.95 168.535 608.644C172.79 611.998 178.161 614 184 614Z" fill="white"/>
<circle cx="192" cy="600" r="23.5" stroke="black" stroke-width="3"/>
<circle cx="548" cy="95" r="25" fill="#D9D9D9"/>
<path fill-rule="evenodd" clip-rule="evenodd" d="M540 109C553.807 109 565 97.8071 565 84C565 80.9617 564.458 78.0501 563.465 75.3564C559.21 72.0017 553.839 70 548 70C534.193 70 523 81.1929 523 95C523 98.0383 523.542 100.95 524.535 103.644C528.79 106.998 534.161 109 540 109Z" fill="white"/>
<circle cx="548" cy="95" r="23.5" stroke="black" stroke-width="3"/>
<circle cx="548" cy="241" r="25" fill="#D9D9D9"/>
<path fill-rule="evenodd" clip-rule="evenodd" d="M540 255C553.807 255 565 243.807 565 230C565 226.962 564.458 224.05 563.465 221.356C559.21 218.002 553.839 216 548 216C534.193 216 523 227.193 523 241C523 244.038 523.542 246.95 524.535 249.644C528.79 252.998 534.161 255 540 255Z" fill="white"/>
<circle cx="548" cy="241" r="23.5" stroke="black" stroke-width="3"/>
<circle cx="548" cy="473" r="25" fill="#D9D9D9"/>
<path fill-rule="evenodd" clip-rule="evenodd" d="M540 487C553.807 487 565 475.807 565 462C565 458.962 564.458 456.05 563.465 453.356C559.21 450.002 553.839 448 548 448C534.193 448 523 459.193 523 473C523 476.038 523.542 478.95 524.535 481.644C528.79 484.998 534.161 487 540 487Z" fill="white"/>
<circle cx="548" cy="473" r="23.5" stroke="black" stroke-width="3"/>
<circle cx="548" cy="600" r="25" fill="#D9D9D9"/>
<path fill-rule="evenodd" clip-rule="evenodd" d="M540 614C553.807 614 565 602.807 565 589C565 585.962 564.458 583.05 563.465 580.356C559.21 577.002 553.839 575 548 575C534.193 575 523 586.193 523 600C523 603.038 523.542 605.95 524.535 608.644C528.79 611.998 534.161 614 540 614Z" fill="white"/>
<circle cx="548" cy="600" r="23.5" stroke="black" stroke-width="3"/>
<circle cx="675" cy="95" r="25" fill="#D9D9D9"/>
<path fill-rule="evenodd" clip-rule="evenodd" d="M667 109C680.807 109 692 97.8071 692 84C692 80.9617 691.458 78.0501 690.465 75.3564C686.21 72.0017 680.839 70 675 70C661.193 70 650 81.1929 650 95C650 98.0383 650.542 100.95 651.535 103.644C655.79 106.998 661.161 109 667 109Z" fill="white"/>
<circle cx="675" cy="95" r="23.5" stroke="black" stroke-width="3"/>
<circle cx="675" cy="241" r="25" fill="#D9D9D9"/>
<path fill-rule="evenodd" clip-rule="evenodd" d="M667 255C680.807 255 692 243.807 692 230C692 226.962 691.458 224.05 690.465 221.356C686.21 218.002 680.839 216 675 216C661.193 216 650 227.193 650 241C650 244.038 650.542 246.95 651.535 249.644C655.79 252.998 661.161 255 667 255Z" fill="white"/>
<circle cx="675" cy="241" r="23.5" stroke="black" stroke-width="3"/>
<circle cx="675" cy="473" r="25" fill="#D9D9D9"/>
<path fill-rule="evenodd" clip-rule="evenodd" d="M667 487C680.807 487 692 475.807 692 462C692 458.962 691.458 456.05 690.465 453.356C686.21 450.002 680.839 448 675 448C661.193 448 650 459.193 650 473C650 476.038 650.542 478.95 651.535 481.644C655.79 484.998 661.161 487 667 487Z" fill="white"/>
<circle cx="675" cy="473" r="23.5" stroke="black" stroke-width="3"/>
<circle cx="675" cy="600" r="25" fill="#D9D9D9"/>
<path fill-rule="evenodd" clip-rule="evenodd" d="M667 614C680.807 614 692 602.807 692 589C692 585.962 691.458 583.05 690.465 580.356C686.21 577.002 680.839 575 675 575C661.193 575 650 586.193 650 600C650 603.038 650.542 605.95 651.535 608.644C655.79 611.998 661.161 614 667 614Z" fill="white"/>
<circle cx="675" cy="600" r="23.5" stroke="black" stroke-width="3"/>
<circle cx="245.5" cy="597.5" r="12.5" fill="#D9D9D9"/>
<path fill-rule="evenodd" clip-rule="evenodd" d="M239.5 602C246.404 602 252 596.404 252 589.5C252 588.511 251.885 587.548 251.668 586.625C249.848 585.591 247.743 585 245.5 585C238.596 585 233 590.596 233 597.5C233 598.489 233.115 599.452 233.332 600.375C235.152 601.409 237.257 602 239.5 602Z" fill="white"/>
<circle cx="245.5" cy="597.5" r="11" stroke="black" stroke-width="3"/>
<circle cx="245.5" cy="242.5" r="12.5" fill="#D9D9D9"/>
<path fill-rule="evenodd" clip-rule="evenodd" d="M239.5 247C246.404 247 252 241.404 252 234.5C252 233.511 251.885 232.548 251.668 231.625C249.848 230.591 247.743 230 245.5 230C238.596 230 233 235.596 233 242.5C233 243.489 233.115 244.452 233.332 245.375C235.152 246.409 237.257 247 239.5 247Z" fill="white"/>
<circle cx="245.5" cy="242.5" r="11" stroke="black" stroke-width="3"/>
<circle cx="289.5" cy="493.5" r="12.5" fill="#D9D9D9"/>
<path fill-rule="evenodd" clip-rule="evenodd" d="M283.5 498C290.404 498 296 492.404 296 485.5C296 484.511 295.885 483.548 295.668 482.625C293.848 481.591 291.743 481 289.5 481C282.596 481 277 486.596 277 493.5C277 494.489 277.115 495.452 277.332 496.375C279.152 497.409 281.257 498 283.5 498Z" fill="white"/>
<circle cx="289.5" cy="493.5" r="11" stroke="black" stroke-width="3"/>
<circle cx="245.5" cy="108.5" r="12.5" fill="#D9D9D9"/>
<path fill-rule="evenodd" clip-rule="evenodd" d="M239.5 113C246.404 113 252 107.404 252 100.5C252 99.5107 251.885 98.5482 251.668 97.6252C249.848 96.5908 247.743 96 245.5 96C238.596 96 233 101.596 233 108.5C233 109.489 233.115 110.452 233.332 111.375C235.152 112.409 237.257 113 239.5 113Z" fill="white"/>
<circle cx="245.5" cy="108.5" r="11" stroke="black" stroke-width="3"/>
<circle cx="444.5" cy="493.5" r="12.5" fill="#D9D9D9"/>
<path fill-rule="evenodd" clip-rule="evenodd" d="M438.5 498C445.404 498 451 492.404 451 485.5C451 484.511 450.885 483.548 450.668 482.625C448.848 481.591 446.743 481 444.5 481C437.596 481 432 486.596 432 493.5C432 494.489 432.115 495.452 432.332 496.375C434.152 497.409 436.257 498 438.5 498Z" fill="white"/>
<circle cx="444.5" cy="493.5" r="11" stroke="black" stroke-width="3"/>
<circle cx="493.5" cy="108.5" r="12.5" fill="#D9D9D9"/>
<path fill-rule="evenodd" clip-rule="evenodd" d="M487.5 113C494.404 113 500 107.404 500 100.5C500 99.5107 499.885 98.5482 499.668 97.6252C497.848 96.5908 495.743 96 493.5 96C486.596 96 481 101.596 481 108.5C481 109.489 481.115 110.452 481.332 111.375C483.152 112.409 485.257 113 487.5 113Z" fill="white"/>
<circle cx="493.5" cy="108.5" r="11" stroke="black" stroke-width="3"/>
<circle cx="493.5" cy="597.5" r="12.5" fill="#D9D9D9"/>
<path fill-rule="evenodd" clip-rule="evenodd" d="M487.5 602C494.404 602 500 596.404 500 589.5C500 588.511 499.885 587.548 499.668 586.625C497.848 585.591 495.743 585 493.5 585C486.596 585 481 590.596 481 597.5C481 598.489 481.115 599.452 481.332 600.375C483.152 601.409 485.257 602 487.5 602Z" fill="white"/>
<circle cx="493.5" cy="597.5" r="11" stroke="black" stroke-width="3"/>
<circle cx="493.5" cy="242.5" r="12.5" fill="#D9D9D9"/>
<path fill-rule="evenodd" clip-rule="evenodd" d="M487.5 247C494.404 247 500 241.404 500 234.5C500 233.511 499.885 232.548 499.668 231.625C497.848 230.591 495.743 230 493.5 230C486.596 230 481 235.596 481 242.5C481 243.489 481.115 244.452 481.332 245.375C483.152 246.409 485.257 247 487.5 247Z" fill="white"/>
<circle cx="493.5" cy="242.5" r="11" stroke="black" stroke-width="3"/>
</svg>
