<?xml version="1.0" encoding="UTF-8"?>
<!DOCTYPE svg PUBLIC "-//W3C//DTD SVG 1.1//EN" "http://www.w3.org/Graphics/SVG/1.1/DTD/svg11.dtd">
<svg xmlns="http://www.w3.org/2000/svg" version="1.1" width="334px" height="327px" style="shape-rendering:geometricPrecision; text-rendering:geometricPrecision; image-rendering:optimizeQuality; fill-rule:evenodd; clip-rule:evenodd" xmlns:xlink="http://www.w3.org/1999/xlink">
<g><path style="opacity:1" fill="#fcfdf5" d="M -0.5,-0.5 C 110.833,-0.5 222.167,-0.5 333.5,-0.5C 333.5,108.5 333.5,217.5 333.5,326.5C 222.167,326.5 110.833,326.5 -0.5,326.5C -0.5,217.5 -0.5,108.5 -0.5,-0.5 Z"/></g>
<g><path style="opacity:1" fill="#0d0a0a" d="M 272.5,44.5 C 272.5,54.8333 272.5,65.1667 272.5,75.5C 274.833,75.5 277.167,75.5 279.5,75.5C 279.5,71.5 279.5,67.5 279.5,63.5C 280.884,62.1991 282.384,62.1991 284,63.5C 284.177,67.3563 284.677,71.023 285.5,74.5C 287.265,75.4614 289.265,75.7947 291.5,75.5C 291.5,67.8333 291.5,60.1667 291.5,52.5C 292.919,51.5489 294.585,51.2155 296.5,51.5C 296.169,59.5277 296.502,67.5277 297.5,75.5C 302.112,73.9477 303.446,75.4477 301.5,80C 300.207,80.49 298.873,80.6567 297.5,80.5C 297.5,81.5 297.5,82.5 297.5,83.5C 299.833,83.5 302.167,83.5 304.5,83.5C 304.714,85.1439 304.38,86.6439 303.5,88C 301.19,88.4966 298.857,88.6633 296.5,88.5C 296.5,97.5 296.5,106.5 296.5,115.5C 298.167,115.5 299.833,115.5 301.5,115.5C 301.5,117.167 301.5,118.833 301.5,120.5C 300.167,120.5 298.833,120.5 297.5,120.5C 297.5,121.5 297.5,122.5 297.5,123.5C 302.159,123.015 303.492,124.848 301.5,129C 299.866,129.494 298.199,129.66 296.5,129.5C 296.5,151.5 296.5,173.5 296.5,195.5C 300.068,195.759 301.401,197.759 300.5,201.5C 299.5,201.5 298.5,201.5 297.5,201.5C 297.5,202.5 297.5,203.5 297.5,204.5C 299.833,204.5 302.167,204.5 304.5,204.5C 304.739,206.467 304.406,208.301 303.5,210C 301.19,210.497 298.857,210.663 296.5,210.5C 296.5,216.5 296.5,222.5 296.5,228.5C 301.667,227.492 303.334,229.325 301.5,234C 300.062,234.219 298.729,234.719 297.5,235.5C 299.396,236.466 301.396,236.799 303.5,236.5C 303.5,238.167 303.5,239.833 303.5,241.5C 301.194,241.993 298.861,242.326 296.5,242.5C 296.5,248.833 296.5,255.167 296.5,261.5C 299.5,261.5 302.5,261.5 305.5,261.5C 305.923,263.781 305.256,265.448 303.5,266.5C 301.167,266.5 298.833,266.5 296.5,266.5C 296.182,271.032 296.515,275.366 297.5,279.5C 297.655,283.117 297.988,286.784 298.5,290.5C 298.304,292.286 297.471,293.619 296,294.5C 295.506,296.134 295.34,297.801 295.5,299.5C 293.856,299.714 292.356,299.38 291,298.5C 290.667,293.833 290.333,289.167 290,284.5C 288.89,282.963 287.39,282.297 285.5,282.5C 285.26,285.579 285.593,288.579 286.5,291.5C 273.517,292.499 260.517,292.832 247.5,292.5C 247.662,294.527 247.495,296.527 247,298.5C 245.644,299.38 244.144,299.714 242.5,299.5C 242.5,297.5 242.5,295.5 242.5,293.5C 221.167,293.5 199.833,293.5 178.5,293.5C 178.696,297.641 176.696,299.975 172.5,300.5C 168.89,299.556 167.223,297.223 167.5,293.5C 145.833,293.5 124.167,293.5 102.5,293.5C 102.5,295.5 102.5,297.5 102.5,299.5C 100.833,299.5 99.1667,299.5 97.5,299.5C 97.5,297.5 97.5,295.5 97.5,293.5C 84.5,293.5 71.5,293.5 58.5,293.5C 58.665,290.15 58.4983,286.817 58,283.5C 56.6439,284.38 55.1439,284.714 53.5,284.5C 53.5,289.167 53.5,293.833 53.5,298.5C 49.5,299.167 47.8333,297.5 48.5,293.5C 44.7162,293.475 43.7162,291.808 45.5,288.5C 46.4584,288.047 47.2917,287.381 48,286.5C 48.82,279.986 48.6533,273.653 47.5,267.5C 45.1667,267.5 42.8333,267.5 40.5,267.5C 40.5,265.5 40.5,263.5 40.5,261.5C 42.8333,261.5 45.1667,261.5 47.5,261.5C 47.5,255.167 47.5,248.833 47.5,242.5C 45.5,242.5 43.5,242.5 41.5,242.5C 40.6032,237.728 42.6032,235.395 47.5,235.5C 45.8917,234.682 44.2251,234.015 42.5,233.5C 40.9478,229.072 42.6145,227.405 47.5,228.5C 47.5,222.5 47.5,216.5 47.5,210.5C 42.0687,211.906 39.7353,209.906 40.5,204.5C 42.8333,204.5 45.1667,204.5 47.5,204.5C 47.5,203.5 47.5,202.5 47.5,201.5C 45.8333,201.5 44.1667,201.5 42.5,201.5C 42.5,199.833 42.5,198.167 42.5,196.5C 44.1667,196.5 45.8333,196.5 47.5,196.5C 48.6499,197.85 49.3166,197.684 49.5,196C 48.6819,173.197 48.1819,150.364 48,127.5C 46.3005,128.406 44.4672,128.739 42.5,128.5C 40.9134,124.082 42.58,122.415 47.5,123.5C 47.5,122.5 47.5,121.5 47.5,120.5C 45.8008,120.66 44.1341,120.494 42.5,120C 41.1667,118.667 41.1667,117.333 42.5,116C 44.1341,115.506 45.8008,115.34 47.5,115.5C 47.5,106.5 47.5,97.5 47.5,88.5C 45.4727,88.6621 43.4727,88.4955 41.5,88C 40.6198,86.6439 40.2865,85.1439 40.5,83.5C 42.8333,83.5 45.1667,83.5 47.5,83.5C 47.5,82.5 47.5,81.5 47.5,80.5C 43.062,81.5749 41.062,79.9083 41.5,75.5C 43.5,75.5 45.5,75.5 47.5,75.5C 47.3336,67.8261 47.5003,60.1594 48,52.5C 49.6667,51.1667 51.3333,51.1667 53,52.5C 53.4997,60.1594 53.6664,67.8261 53.5,75.5C 55.4672,75.7394 57.3005,75.4061 59,74.5C 59.4988,70.5138 59.6655,66.5138 59.5,62.5C 61.1439,62.2865 62.6439,62.6198 64,63.5C 64.4988,67.4862 64.6655,71.4862 64.5,75.5C 66.5,75.5 68.5,75.5 70.5,75.5C 70.3335,65.1613 70.5002,54.828 71,44.5C 72.6667,43.1667 74.3333,43.1667 76,44.5C 76.4998,54.828 76.6665,65.1613 76.5,75.5C 80.1667,75.5 83.8333,75.5 87.5,75.5C 89.1439,75.2865 90.6439,75.6198 92,76.5C 93.5778,75.2887 93.7445,73.9554 92.5,72.5C 91.1585,74.0049 89.4918,74.6715 87.5,74.5C 88.3562,71.5419 88.5229,68.5419 88,65.5C 88.5613,64.9781 89.228,64.6448 90,64.5C 91.9317,66.1779 94.0983,66.6779 96.5,66C 97.0219,65.4387 97.3552,64.772 97.5,64C 96.199,57.2905 96.199,50.6238 97.5,44C 99.1124,43.2797 100.612,43.4464 102,44.5C 102.171,49.8642 102.671,55.1975 103.5,60.5C 124.712,51.3886 145.712,42.0552 166.5,32.5C 163.478,31.9961 162.311,30.3294 163,27.5C 165.394,26.8641 167.894,26.8641 170.5,27.5C 170.5,23.8333 170.5,20.1667 170.5,16.5C 172.144,16.2865 173.644,16.6198 175,17.5C 175.176,20.8818 175.676,24.2152 176.5,27.5C 178.881,25.6041 181.381,25.2708 184,26.5C 184.442,29.7395 182.942,31.5729 179.5,32C 178.167,32.6667 178.167,33.3333 179.5,34C 200.284,42.892 220.951,52.0587 241.5,61.5C 242.496,55.5368 242.829,49.5368 242.5,43.5C 244.467,43.2606 246.301,43.5939 248,44.5C 248.333,51.5 248.667,58.5 249,65.5C 251.262,68.0971 253.095,67.9304 254.5,65C 255.448,64.5172 256.448,64.3505 257.5,64.5C 257.626,66.1998 258.293,67.6998 259.5,69C 258.971,70.5589 258.304,72.0589 257.5,73.5C 258.025,74.1924 258.692,74.6924 259.5,75C 262.146,75.4974 264.813,75.6641 267.5,75.5C 267.5,65.1667 267.5,54.8333 267.5,44.5C 269.167,44.5 270.833,44.5 272.5,44.5 Z"/></g>
<g><path style="opacity:1" fill="#a0827d" d="M 178.5,40.5 C 179.376,40.3691 180.043,40.7025 180.5,41.5C 176.765,45.4206 176.098,45.0873 178.5,40.5 Z"/></g>
<g><path style="opacity:1" fill="#dfdbdb" d="M 165.5,45.5 C 167.78,46.6401 170.114,47.8068 172.5,49C 175.236,49.4217 177.902,49.4217 180.5,49C 178.626,50.435 176.626,51.6016 174.5,52.5C 170.56,51.1965 166.893,49.3631 163.5,47C 164.416,46.7216 165.082,46.2216 165.5,45.5 Z"/></g>
<g><path style="opacity:1" fill="#736e6e" d="M 154.5,49.5 C 162.301,50.6276 162.301,51.2943 154.5,51.5C 154.5,50.8333 154.5,50.1667 154.5,49.5 Z"/></g>
<g><path style="opacity:1" fill="#f0f0ee" d="M 193.5,47.5 C 195.199,47.3398 196.866,47.5065 198.5,48C 212.833,54.5 227.167,61 241.5,67.5C 242.833,69.8333 242.833,72.1667 241.5,74.5C 224.284,66.7226 207.284,58.7226 190.5,50.5C 191.77,49.7124 192.77,48.7124 193.5,47.5 Z"/></g>
<g><path style="opacity:1" fill="#b0b0ad" d="M 272.5,44.5 C 273.494,54.3194 273.827,64.3194 273.5,74.5C 275.167,74.5 276.833,74.5 278.5,74.5C 278.185,70.6286 278.518,66.9619 279.5,63.5C 279.5,67.5 279.5,71.5 279.5,75.5C 277.167,75.5 274.833,75.5 272.5,75.5C 272.5,65.1667 272.5,54.8333 272.5,44.5 Z"/></g>
<g><path style="opacity:1" fill="#f4f3f1" d="M 154.5,49.5 C 154.5,50.1667 154.5,50.8333 154.5,51.5C 137.415,58.54 120.415,65.8734 103.5,73.5C 101.954,70.0865 102.62,67.2531 105.5,65C 119.508,58.745 133.674,52.9117 148,47.5C 150.226,48.0329 152.393,48.6996 154.5,49.5 Z"/></g>
<g><path style="opacity:1" fill="#f0efee" d="M 182.5,53.5 C 196.915,59.9119 211.248,66.4119 225.5,73C 226.833,73.6667 226.833,74.3333 225.5,75C 221.508,75.1899 220.175,77.0232 221.5,80.5C 228.167,83.5 234.833,86.5 241.5,89.5C 242.833,91.8333 242.833,94.1667 241.5,96.5C 219.596,88.2136 197.929,79.3803 176.5,70C 175.209,66.5447 175.209,63.0447 176.5,59.5C 185.79,64.0963 195.124,68.5963 204.5,73C 209.324,75.2203 214.324,76.7203 219.5,77.5C 219.67,76.1779 219.337,75.0113 218.5,74C 206.286,68.0596 193.953,62.3929 181.5,57C 181.043,56.586 180.709,56.086 180.5,55.5C 181.243,54.8182 181.909,54.1515 182.5,53.5 Z"/></g>
<g><path style="opacity:1" fill="#5f5e5c" d="M 168.5,60.5 C 168.56,59.9569 168.893,59.6236 169.5,59.5C 170.806,62.9798 170.806,66.3132 169.5,69.5C 169.81,66.2869 169.477,63.2869 168.5,60.5 Z"/></g>
<g><path style="opacity:1" fill="#b3b3b0" d="M 291.5,52.5 C 291.5,60.1667 291.5,67.8333 291.5,75.5C 289.265,75.7947 287.265,75.4614 285.5,74.5C 287.167,74.5 288.833,74.5 290.5,74.5C 290.175,66.9809 290.508,59.6476 291.5,52.5 Z"/></g>
<g><path style="opacity:1" fill="#e6e3e2" d="M 161.5,53.5 C 162.922,53.7086 164.255,54.2086 165.5,55C 152.197,61.3171 138.864,67.6505 125.5,74C 122.833,74.6667 120.167,74.6667 117.5,74C 132.106,66.8612 146.773,60.0278 161.5,53.5 Z"/></g>
<g><path style="opacity:1" fill="#dfdfdf" d="M 249.5,71.5 C 250.249,72.531 250.915,73.6976 251.5,75C 251.167,75.1667 250.833,75.3333 250.5,75.5C 249.571,74.3112 249.238,72.9778 249.5,71.5 Z"/></g>
<g><path style="opacity:1" fill="#5e5956" d="M 87.5,75.5 C 87.5,75.1667 87.5,74.8333 87.5,74.5C 89.4918,74.6715 91.1585,74.0049 92.5,72.5C 93.7445,73.9554 93.5778,75.2887 92,76.5C 90.6439,75.6198 89.1439,75.2865 87.5,75.5 Z"/></g>
<g><path style="opacity:1" fill="#f3f3f1" d="M 52.5,80.5 C 54.604,80.2011 56.604,80.5344 58.5,81.5C 57.5,81.8333 56.5,82.1667 55.5,82.5C 53.9704,82.3601 52.9704,81.6935 52.5,80.5 Z"/></g>
<g><path style="opacity:1" fill="#fdfcfb" d="M 64.5,80.5 C 75.1874,80.168 85.8541,80.5013 96.5,81.5C 91.1667,81.8333 85.8333,82.1667 80.5,82.5C 74.7891,82.4949 69.4558,81.8282 64.5,80.5 Z"/></g>
<g><path style="opacity:1" fill="#e0dfdf" d="M 105.5,79.5 C 107.199,79.3398 108.866,79.5065 110.5,80C 108.167,81.1667 105.833,82.3333 103.5,83.5C 103.167,83.1667 102.833,82.8333 102.5,82.5C 103.34,81.265 104.34,80.265 105.5,79.5 Z"/></g>
<g><path style="opacity:1" fill="#f3f1f2" d="M 236.5,81.5 C 237.919,80.5489 239.585,80.2155 241.5,80.5C 241.719,81.675 241.386,82.675 240.5,83.5C 239.14,82.8201 237.807,82.1534 236.5,81.5 Z"/></g>
<g><path style="opacity:1" fill="#fbfaf9" d="M 247.5,80.5 C 258.187,80.168 268.854,80.5013 279.5,81.5C 274.167,81.8333 268.833,82.1667 263.5,82.5C 257.789,82.4949 252.456,81.8282 247.5,80.5 Z"/></g>
<g><path style="opacity:1" fill="#d5d4d3" d="M 284.5,80.5 C 286.5,80.5 288.5,80.5 290.5,80.5C 290.5,81.5 290.5,82.5 290.5,83.5C 288.5,83.5 286.5,83.5 284.5,83.5C 284.5,82.5 284.5,81.5 284.5,80.5 Z"/></g>
<g><path style="opacity:1" fill="#f6f4ed" d="M 168.5,60.5 C 169.477,63.2869 169.81,66.2869 169.5,69.5C 147.558,78.4849 125.558,87.4849 103.5,96.5C 102.167,93.8333 102.167,91.1667 103.5,88.5C 124.992,78.7797 146.659,69.4464 168.5,60.5 Z"/></g>
<g><path style="opacity:1" fill="#fbfbf8" d="M 77.5,106.5 C 76.5104,100.69 76.1771,94.69 76.5,88.5C 81.9752,89.0807 87.1418,88.4141 92,86.5C 93.049,88.1066 94.549,88.7733 96.5,88.5C 96.8204,91.8984 96.487,95.2317 95.5,98.5C 89.474,101.181 83.474,103.848 77.5,106.5 Z"/></g>
<g><path style="opacity:1" fill="#e1d8d7" d="M 171.5,86.5 C 172.82,89.428 173.486,92.7614 173.5,96.5C 173.167,99.8333 172.833,103.167 172.5,106.5C 171.503,99.8665 171.17,93.1998 171.5,86.5 Z"/></g>
<g><path style="opacity:1" fill="#f5f4f1" d="M 249.5,87.5 C 255.455,88.3635 261.455,88.6968 267.5,88.5C 267.829,94.5368 267.496,100.537 266.5,106.5C 260.143,104.238 253.977,101.571 248,98.5C 247.039,94.5081 247.539,90.8415 249.5,87.5 Z"/></g>
<g><path style="opacity:1" fill="#fbfbf9" d="M 53.5,88.5 C 55.1667,88.5 56.8333,88.5 58.5,88.5C 58.5,97.5 58.5,106.5 58.5,115.5C 56.8333,115.5 55.1667,115.5 53.5,115.5C 53.5,106.5 53.5,97.5 53.5,88.5 Z"/></g>
<g><path style="opacity:1" fill="#fcfcf9" d="M 64.5,88.5 C 66.5,88.5 68.5,88.5 70.5,88.5C 70.5,95.5 70.5,102.5 70.5,109.5C 68.7376,109.357 67.0709,109.691 65.5,110.5C 64.5027,103.197 64.1694,95.8635 64.5,88.5 Z"/></g>
<g><path style="opacity:1" fill="#f8f8f5" d="M 290.5,88.5 C 290.5,97.1667 290.5,105.833 290.5,114.5C 288.5,114.5 286.5,114.5 284.5,114.5C 284.5,105.833 284.5,97.1667 284.5,88.5C 286.5,88.5 288.5,88.5 290.5,88.5 Z"/></g>
<g><path style="opacity:1" fill="#e6e5e3" d="M 176.5,77.5 C 198.287,86.7274 220.287,95.394 242.5,103.5C 242.781,108 241.114,108.833 237.5,106C 217.937,97.7175 198.27,89.7175 178.5,82C 176.963,80.8904 176.297,79.3904 176.5,77.5 Z"/></g>
<g><path style="opacity:1" fill="#f6f6f4" d="M 273.5,88.5 C 275.5,88.5 277.5,88.5 279.5,88.5C 279.831,95.8635 279.497,103.197 278.5,110.5C 277.817,110.137 277.15,109.804 276.5,109.5C 275.791,108.596 274.791,108.263 273.5,108.5C 273.5,101.833 273.5,95.1667 273.5,88.5 Z"/></g>
<g><path style="opacity:1" fill="#b4b4b2" d="M 273.5,88.5 C 273.5,95.1667 273.5,101.833 273.5,108.5C 274.791,108.263 275.791,108.596 276.5,109.5C 275.167,109.5 273.833,109.5 272.5,109.5C 272.175,102.313 272.509,95.3134 273.5,88.5 Z"/></g>
<g><path style="opacity:1" fill="#e9e6e4" d="M 166.5,77.5 C 168.652,78.0768 168.985,79.2435 167.5,81C 145.759,89.1819 124.426,98.0152 103.5,107.5C 102.571,106.311 102.238,104.978 102.5,103.5C 124.117,95.3522 145.451,86.6855 166.5,77.5 Z"/></g>
<g><path style="opacity:1" fill="#4f4f4d" d="M 76.5,88.5 C 76.1771,94.69 76.5104,100.69 77.5,106.5C 77.44,107.043 77.1067,107.376 76.5,107.5C 75.1826,101.012 75.1826,94.6783 76.5,88.5 Z"/></g>
<g><path style="opacity:1" fill="#988279" d="M 160.5,107.5 C 160.675,109.621 160.341,111.621 159.5,113.5C 159.167,113.5 158.833,113.5 158.5,113.5C 147.839,112.422 137.173,111.422 126.5,110.5C 139.175,104.328 152.175,98.9947 165.5,94.5C 165.726,97.2492 165.393,99.9159 164.5,102.5C 163.311,103.429 161.978,103.762 160.5,103.5C 160.5,104.833 160.5,106.167 160.5,107.5 Z"/></g>
<g><path style="opacity:1" fill="#aeaeab" d="M 290.5,88.5 C 291.493,97.3178 291.827,106.318 291.5,115.5C 288.941,115.802 286.607,115.468 284.5,114.5C 286.5,114.5 288.5,114.5 290.5,114.5C 290.5,105.833 290.5,97.1667 290.5,88.5 Z"/></g>
<g><path style="opacity:1" fill="#a0887b" d="M 219.5,110.5 C 209.013,111.494 198.346,111.828 187.5,111.5C 186.167,111.5 184.833,111.5 183.5,111.5C 184.64,108.975 185.307,106.308 185.5,103.5C 183.833,103.5 182.167,103.5 180.5,103.5C 180.5,100.833 180.5,98.1667 180.5,95.5C 193.466,100.709 206.466,105.709 219.5,110.5 Z"/></g>
<g><path style="opacity:1" fill="#45372f" d="M 219.5,110.5 C 220.5,110.833 221.167,111.5 221.5,112.5C 210.167,112.5 198.833,112.5 187.5,112.5C 187.5,112.167 187.5,111.833 187.5,111.5C 198.346,111.828 209.013,111.494 219.5,110.5 Z"/></g>
<g><path style="opacity:1" fill="#887a79" d="M 90.5,111.5 C 101.988,112.495 113.655,112.828 125.5,112.5C 130.363,112.181 135.03,112.514 139.5,113.5C 122.497,113.667 105.497,113.5 88.5,113C 89.0442,112.283 89.7109,111.783 90.5,111.5 Z"/></g>
<g><path style="opacity:1" fill="#5e4640" d="M 126.5,110.5 C 137.173,111.422 147.839,112.422 158.5,113.5C 152.167,113.5 145.833,113.5 139.5,113.5C 135.03,112.514 130.363,112.181 125.5,112.5C 125.328,111.508 125.662,110.842 126.5,110.5 Z"/></g>
<g><path style="opacity:1" fill="#776a63" d="M 187.5,112.5 C 198.833,112.5 210.167,112.5 221.5,112.5C 207.5,113.167 193.5,113.833 179.5,114.5C 178.957,114.44 178.624,114.107 178.5,113.5C 181.428,112.516 184.428,112.183 187.5,112.5 Z"/></g>
<g><path style="opacity:1" fill="#f2e6e6" d="M 90.5,111.5 C 89.7109,111.783 89.0442,112.283 88.5,113C 105.497,113.5 122.497,113.667 139.5,113.5C 145.833,113.5 152.167,113.5 158.5,113.5C 158.833,113.5 159.167,113.5 159.5,113.5C 136.52,114.507 109.52,114.841 78.5,114.5C 83.955,111.608 89.6217,108.942 95.5,106.5C 96.8333,107.5 96.8333,108.5 95.5,109.5C 93.9246,110.456 92.258,111.123 90.5,111.5 Z"/></g>
<g><path style="opacity:1" fill="#e6e0de" d="M 179.5,114.5 C 193.5,113.833 207.5,113.167 221.5,112.5C 232.172,112.667 242.839,112.5 253.5,112C 251.833,111.167 250.167,110.333 248.5,109.5C 247.167,108.5 247.167,107.5 248.5,106.5C 254.375,109.302 260.375,111.802 266.5,114C 237.502,114.5 208.502,114.667 179.5,114.5 Z"/></g>
<g><path style="opacity:1" fill="#44393a" d="M 160.5,107.5 C 161.163,109.042 161.83,110.709 162.5,112.5C 165.69,109.977 167.023,110.977 166.5,115.5C 136.995,115.831 107.662,115.498 78.5,114.5C 109.52,114.841 136.52,114.507 159.5,113.5C 160.341,111.621 160.675,109.621 160.5,107.5 Z"/></g>
<g><path style="opacity:1" fill="#fcf9f9" d="M 84.5,120.5 C 111.841,120.167 139.175,120.5 166.5,121.5C 152.833,121.833 139.167,122.167 125.5,122.5C 111.483,122.499 97.8166,121.833 84.5,120.5 Z"/></g>
<g><path style="opacity:1" fill="#f4f3f1" d="M 53.5,120.5 C 55.1667,120.5 56.8333,120.5 58.5,120.5C 58.5,121.5 58.5,122.5 58.5,123.5C 56.8333,123.5 55.1667,123.5 53.5,123.5C 53.5,122.5 53.5,121.5 53.5,120.5 Z"/></g>
<g><path style="opacity:1" fill="#e8e7e6" d="M 64.5,120.5 C 65.5,120.5 66.5,120.5 67.5,120.5C 67.5,121.5 67.5,122.5 67.5,123.5C 66.5,123.5 65.5,123.5 64.5,123.5C 64.5,122.5 64.5,121.5 64.5,120.5 Z"/></g>
<g><path style="opacity:1" fill="#cccbcb" d="M 68.5,120.5 C 70.4646,120.948 70.7979,121.948 69.5,123.5C 68.6143,122.675 68.281,121.675 68.5,120.5 Z"/></g>
<g><path style="opacity:1" fill="#f3eeed" d="M 179.5,120.5 C 206.502,120.333 233.502,120.5 260.5,121C 259.944,121.383 259.611,121.883 259.5,122.5C 232.479,123.158 205.812,122.491 179.5,120.5 Z"/></g>
<g><path style="opacity:1" fill="#887e7d" d="M 179.5,120.5 C 205.812,122.491 232.479,123.158 259.5,122.5C 232.672,123.498 205.672,123.831 178.5,123.5C 178.263,122.209 178.596,121.209 179.5,120.5 Z"/></g>
<g><path style="opacity:1" fill="#ebe8e6" d="M 273.5,121.5 C 275.604,121.201 277.604,121.534 279.5,122.5C 278.5,122.833 277.5,123.167 276.5,123.5C 274.97,123.36 273.97,122.693 273.5,121.5 Z"/></g>
<g><path style="opacity:1" fill="#efedeb" d="M 284.5,120.5 C 286.833,120.5 289.167,120.5 291.5,120.5C 291.5,121.5 291.5,122.5 291.5,123.5C 289.167,123.5 286.833,123.5 284.5,123.5C 284.5,122.5 284.5,121.5 284.5,120.5 Z"/></g>
<g><path style="opacity:1" fill="#fcfcf9" d="M 53.5,129.5 C 55.1667,129.5 56.8333,129.5 58.5,129.5C 58.5,151.833 58.5,174.167 58.5,196.5C 56.8333,196.5 55.1667,196.5 53.5,196.5C 53.5,174.167 53.5,151.833 53.5,129.5 Z"/></g>
<g><path style="opacity:1" fill="#f6f4f3" d="M 279.5,129.5 C 279.5,151.833 279.5,174.167 279.5,196.5C 277.5,196.5 275.5,196.5 273.5,196.5C 273.5,174.167 273.5,151.833 273.5,129.5C 275.5,129.5 277.5,129.5 279.5,129.5 Z"/></g>
<g><path style="opacity:1" fill="#fefefd" d="M 285.5,129.5 C 287.167,129.5 288.833,129.5 290.5,129.5C 290.831,151.673 290.497,173.673 289.5,195.5C 288.5,195.5 287.5,195.5 286.5,195.5C 285.503,173.673 285.169,151.673 285.5,129.5 Z"/></g>
<g><path style="opacity:1" fill="#fdfdfb" d="M 64.5,129.5 C 66.5,129.5 68.5,129.5 70.5,129.5C 70.5,151.833 70.5,174.167 70.5,196.5C 68.5,196.5 66.5,196.5 64.5,196.5C 64.5,174.167 64.5,151.833 64.5,129.5 Z"/></g>
<g><path style="opacity:1" fill="#f5f5f2" d="M 77.5,132.5 C 79.1436,133.316 80.3103,134.65 81,136.5C 81.8289,141.533 81.6623,146.533 80.5,151.5C 77.7612,153.891 76.9278,156.891 78,160.5C 80,161.167 81.3333,162.5 82,164.5C 83.2375,175.13 83.7375,185.797 83.5,196.5C 81.1667,196.5 78.8333,196.5 76.5,196.5C 76.1694,174.993 76.5027,153.66 77.5,132.5 Z"/></g>
<g><path style="opacity:1" fill="#502e31" d="M 160.5,144.5 C 159.5,144.5 158.5,144.5 157.5,144.5C 157.5,141.167 157.5,137.833 157.5,134.5C 158.5,134.5 159.5,134.5 160.5,134.5C 160.5,137.833 160.5,141.167 160.5,144.5 Z"/></g>
<g><path style="opacity:1" fill="#574441" d="M 154.5,145.5 C 153.033,142.742 152.367,143.075 152.5,146.5C 150.901,146.768 149.568,146.434 148.5,145.5C 149.5,145.5 150.5,145.5 151.5,145.5C 151.335,141.818 151.501,138.152 152,134.5C 152.414,134.043 152.914,133.709 153.5,133.5C 154.491,137.445 154.824,141.445 154.5,145.5 Z"/></g>
<g><path style="opacity:1" fill="#f5f5ed" d="M 267.5,149.5 C 266.153,148.829 264.986,148.829 264,149.5C 263.501,145.514 263.334,141.514 263.5,137.5C 264.031,135.456 265.198,133.789 267,132.5C 267.499,138.157 267.666,143.824 267.5,149.5 Z"/></g>
<g><path style="opacity:1" fill="#5f4340" d="M 89.5,133.5 C 90.166,136.358 90.8326,139.358 91.5,142.5C 92.3184,139.893 92.8184,137.226 93,134.5C 94.7715,149.054 96.2715,149.054 97.5,134.5C 99.6876,148.968 101.354,148.968 102.5,134.5C 103.48,137.086 103.813,139.753 103.5,142.5C 104.5,142.5 105.5,142.5 106.5,142.5C 106.183,139.428 106.516,136.428 107.5,133.5C 109.167,146.833 110.833,146.833 112.5,133.5C 114.242,148.089 115.909,148.089 117.5,133.5C 118.489,137.107 118.823,140.774 118.5,144.5C 119.5,144.5 120.5,144.5 121.5,144.5C 111.219,146.476 100.552,147.143 89.5,146.5C 89.5,142.167 89.5,137.833 89.5,133.5 Z"/></g>
<g><path style="opacity:1" fill="#3b3a36" d="M 47.5,196.5 C 47.5,174.167 47.5,151.833 47.5,129.5C 45.5853,129.784 43.9187,129.451 42.5,128.5C 44.4672,128.739 46.3005,128.406 48,127.5C 48.1819,150.364 48.6819,173.197 49.5,196C 49.3166,197.684 48.6499,197.85 47.5,196.5 Z"/></g>
<g><path style="opacity:1" fill="#674e4d" d="M 148.5,144.5 C 144.252,145.771 139.752,146.437 135,146.5C 130.248,146.437 125.748,145.771 121.5,144.5C 122.167,129.833 122.833,129.833 123.5,144.5C 124.5,144.5 125.5,144.5 126.5,144.5C 126.177,140.774 126.511,137.107 127.5,133.5C 128.064,137.644 128.897,141.644 130,145.5C 131,141.5 132,137.5 133,133.5C 133.499,137.152 133.665,140.818 133.5,144.5C 134.5,144.5 135.5,144.5 136.5,144.5C 136.177,140.774 136.511,137.107 137.5,133.5C 138.491,137.445 138.824,141.445 138.5,145.5C 139.5,145.5 140.5,145.5 141.5,145.5C 141.176,141.445 141.509,137.445 142.5,133.5C 143.489,137.107 143.823,140.774 143.5,144.5C 144.5,144.5 145.5,144.5 146.5,144.5C 147.167,129.833 147.833,129.833 148.5,144.5 Z"/></g>
<g><path style="opacity:1" fill="#6d4f50" d="M 258.5,145.5 C 258.5,145.833 258.5,146.167 258.5,146.5C 232.157,146.31 205.823,146.644 179.5,147.5C 179.174,143.116 179.508,138.783 180.5,134.5C 181.489,138.107 181.823,141.774 181.5,145.5C 182.833,145.5 184.167,145.5 185.5,145.5C 186.167,130.833 186.833,130.833 187.5,145.5C 188.5,145.5 189.5,145.5 190.5,145.5C 190.5,141.833 190.5,138.167 190.5,134.5C 191.5,134.5 192.5,134.5 193.5,134.5C 193.5,138.167 193.5,141.833 193.5,145.5C 194.5,145.5 195.5,145.5 196.5,145.5C 196.177,141.774 196.511,138.107 197.5,134.5C 198.167,134.167 198.833,133.833 199.5,133.5C 200.167,137.5 200.833,141.5 201.5,145.5C 202.489,141.893 202.823,138.226 202.5,134.5C 203.5,134.5 204.5,134.5 205.5,134.5C 205.5,138.167 205.5,141.833 205.5,145.5C 206.5,145.5 207.5,145.5 208.5,145.5C 209.167,130.833 209.833,130.833 210.5,145.5C 211.5,145.5 212.5,145.5 213.5,145.5C 214.167,130.833 214.833,130.833 215.5,145.5C 216.5,145.5 217.5,145.5 218.5,145.5C 219.167,130.833 219.833,130.833 220.5,145.5C 221.5,145.5 222.5,145.5 223.5,145.5C 224.167,130.833 224.833,130.833 225.5,145.5C 226.5,145.5 227.5,145.5 228.5,145.5C 229.167,130.833 229.833,130.833 230.5,145.5C 231.5,145.5 232.5,145.5 233.5,145.5C 234.167,130.833 234.833,130.833 235.5,145.5C 236.5,145.5 237.5,145.5 238.5,145.5C 239.167,130.833 239.833,130.833 240.5,145.5C 241.5,145.5 242.5,145.5 243.5,145.5C 244.167,130.833 244.833,130.833 245.5,145.5C 246.833,145.5 248.167,145.5 249.5,145.5C 250.167,130.833 250.833,130.833 251.5,145.5C 252.5,145.5 253.5,145.5 254.5,145.5C 254.076,141.297 254.576,137.297 256,133.5C 255.898,137.956 256.732,141.956 258.5,145.5 Z"/></g>
<g><path style="opacity:1" fill="#cfd0cf" d="M 285.5,129.5 C 285.169,151.673 285.503,173.673 286.5,195.5C 286.44,196.043 286.107,196.376 285.5,196.5C 284.172,174.004 284.172,151.67 285.5,129.5 Z"/></g>
<g><path style="opacity:1" fill="#ad9c95" d="M 89.5,133.5 C 89.5,137.833 89.5,142.167 89.5,146.5C 100.552,147.143 111.219,146.476 121.5,144.5C 125.748,145.771 130.248,146.437 135,146.5C 139.752,146.437 144.252,145.771 148.5,144.5C 148.5,144.833 148.5,145.167 148.5,145.5C 149.568,146.434 150.901,146.768 152.5,146.5C 152.367,143.075 153.033,142.742 154.5,145.5C 157.936,147.456 161.603,147.789 165.5,146.5C 166.386,147.325 166.719,148.325 166.5,149.5C 140.5,149.5 114.5,149.5 88.5,149.5C 87.5028,149.53 86.8361,149.03 86.5,148C 88.0077,143.165 89.0077,138.331 89.5,133.5 Z"/></g>
<g><path style="opacity:1" fill="#ac9c95" d="M 258.5,146.5 C 258.5,147.5 258.5,148.5 258.5,149.5C 232.167,149.5 205.833,149.5 179.5,149.5C 179.5,148.833 179.5,148.167 179.5,147.5C 205.823,146.644 232.157,146.31 258.5,146.5 Z"/></g>
<g><path style="opacity:1" fill="#746663" d="M 88.5,149.5 C 114.5,149.5 140.5,149.5 166.5,149.5C 166.719,148.325 166.386,147.325 165.5,146.5C 161.603,147.789 157.936,147.456 154.5,145.5C 155.791,145.737 156.791,145.404 157.5,144.5C 158.5,144.5 159.5,144.5 160.5,144.5C 161.209,145.404 162.209,145.737 163.5,145.5C 163.5,141.833 163.5,138.167 163.5,134.5C 164.5,134.5 165.5,134.5 166.5,134.5C 166.569,139.854 166.902,145.187 167.5,150.5C 140.995,150.831 114.661,150.498 88.5,149.5 Z"/></g>
<g><path style="opacity:1" fill="#746f6a" d="M 258.5,145.5 C 259.451,146.919 259.784,148.585 259.5,150.5C 232.661,150.831 205.995,150.498 179.5,149.5C 205.833,149.5 232.167,149.5 258.5,149.5C 258.5,148.5 258.5,147.5 258.5,146.5C 258.5,146.167 258.5,145.833 258.5,145.5 Z"/></g>
<g><path style="opacity:1" fill="#706d6c" d="M 97.5,156.5 C 93.0293,155.911 89.0293,156.577 85.5,158.5C 84.596,157.791 84.2627,156.791 84.5,155.5C 89.0323,155.182 93.3656,155.515 97.5,156.5 Z"/></g>
<g><path style="opacity:1" fill="#dad7d5" d="M 97.5,156.5 C 97.5858,157.496 97.2524,158.329 96.5,159C 92.6425,159.81 88.9758,159.643 85.5,158.5C 89.0293,156.577 93.0293,155.911 97.5,156.5 Z"/></g>
<g><path style="opacity:1" fill="#a69899" d="M 104.5,155.5 C 118.167,155.5 131.833,155.5 145.5,155.5C 145.5,156.5 145.5,157.5 145.5,158.5C 131.863,159.427 118.196,159.76 104.5,159.5C 104.5,158.167 104.5,156.833 104.5,155.5 Z"/></g>
<g><path style="opacity:1" fill="#d6cdcf" d="M 153.5,155.5 C 157.833,155.5 162.167,155.5 166.5,155.5C 166.5,156.5 166.5,157.5 166.5,158.5C 162.167,158.5 157.833,158.5 153.5,158.5C 153.5,157.5 153.5,156.5 153.5,155.5 Z"/></g>
<g><path style="opacity:1" fill="#dad5d5" d="M 179.5,155.5 C 183.884,155.174 188.217,155.508 192.5,156.5C 192.291,157.086 191.957,157.586 191.5,158C 187.514,158.499 183.514,158.666 179.5,158.5C 179.5,157.5 179.5,156.5 179.5,155.5 Z"/></g>
<g><path style="opacity:1" fill="#a3918e" d="M 199.5,155.5 C 220.167,155.5 240.833,155.5 261.5,155.5C 261.5,156.833 261.5,158.167 261.5,159.5C 240.833,159.5 220.167,159.5 199.5,159.5C 199.5,158.167 199.5,156.833 199.5,155.5 Z"/></g>
<g><path style="opacity:1" fill="#2f2d2c" d="M 77.5,132.5 C 76.5027,153.66 76.1694,174.993 76.5,196.5C 75.1717,174.996 75.1717,153.33 76.5,131.5C 77.1067,131.624 77.44,131.957 77.5,132.5 Z"/></g>
<g><path style="opacity:1" fill="#f5f2f1" d="M 171.5,110.5 C 172.833,123.149 173.499,136.149 173.5,149.5C 173.167,162.5 172.833,175.5 172.5,188.5C 171.5,162.509 171.167,136.509 171.5,110.5 Z"/></g>
<g><path style="opacity:1" fill="#efeeed" d="M 265.5,161.5 C 266.495,172.988 266.828,184.655 266.5,196.5C 264.5,196.5 262.5,196.5 260.5,196.5C 260.168,185.813 260.501,175.146 261.5,164.5C 262.852,163.476 264.185,162.476 265.5,161.5 Z"/></g>
<g><path style="opacity:1" fill="#767272" d="M 279.5,129.5 C 277.5,129.5 275.5,129.5 273.5,129.5C 273.5,151.833 273.5,174.167 273.5,196.5C 272.503,174.006 272.169,151.339 272.5,128.5C 275.059,128.198 277.393,128.532 279.5,129.5 Z"/></g>
<g><path style="opacity:1" fill="#7c6e64" d="M 88.5,165.5 C 91.5719,165.183 94.5719,165.516 97.5,166.5C 96,166.833 94.5,167.167 93,167.5C 91.0145,167.431 89.5145,166.765 88.5,165.5 Z"/></g>
<g><path style="opacity:1" fill="#6d5c52" d="M 108.5,165.5 C 112.555,165.176 116.555,165.509 120.5,166.5C 118.5,166.833 116.5,167.167 114.5,167.5C 112.048,167.461 110.048,166.794 108.5,165.5 Z"/></g>
<g><path style="opacity:1" fill="#8b776c" d="M 130.5,165.5 C 133.898,165.18 137.232,165.513 140.5,166.5C 138.833,166.833 137.167,167.167 135.5,167.5C 133.36,167.444 131.694,166.777 130.5,165.5 Z"/></g>
<g><path style="opacity:1" fill="#a38e84" d="M 202.5,165.5 C 205.572,165.183 208.572,165.516 211.5,166.5C 210,166.833 208.5,167.167 207,167.5C 205.014,167.431 203.514,166.765 202.5,165.5 Z"/></g>
<g><path style="opacity:1" fill="#8b766e" d="M 223.5,165.5 C 227.884,165.174 232.217,165.508 236.5,166.5C 234.333,166.833 232.167,167.167 230,167.5C 227.39,167.467 225.223,166.8 223.5,165.5 Z"/></g>
<g><path style="opacity:1" fill="#8e8078" d="M 244.5,165.5 C 248.226,165.177 251.893,165.511 255.5,166.5C 253.667,166.833 251.833,167.167 250,167.5C 247.705,167.453 245.871,166.787 244.5,165.5 Z"/></g>
<g><path style="opacity:1" fill="#878382" d="M 290.5,129.5 C 291.828,151.67 291.828,174.004 290.5,196.5C 289.893,196.376 289.56,196.043 289.5,195.5C 290.497,173.673 290.831,151.673 290.5,129.5 Z"/></g>
<g><path style="opacity:1" fill="#6f5c58" d="M 255.5,196.5 C 254.935,189.483 254.268,182.483 253.5,175.5C 252.167,175.5 250.833,175.5 249.5,175.5C 249.5,176.5 249.5,177.5 249.5,178.5C 248.5,178.5 247.5,178.5 246.5,178.5C 246.5,176.833 246.5,175.167 246.5,173.5C 250.007,172.994 253.174,173.66 256,175.5C 256.821,182.679 256.655,189.679 255.5,196.5 Z"/></g>
<g><path style="opacity:1" fill="#b29e9b" d="M 230.5,174.5 C 230.5,175.167 230.5,175.833 230.5,176.5C 228.541,182.75 227.874,189.416 228.5,196.5C 228.167,196.5 227.833,196.5 227.5,196.5C 227.666,189.825 227.5,183.158 227,176.5C 225.873,182.844 225.04,189.177 224.5,195.5C 224.5,188.5 224.5,181.5 224.5,174.5C 226.5,174.5 228.5,174.5 230.5,174.5 Z"/></g>
<g><path style="opacity:1" fill="#ceccca" d="M 263.5,137.5 C 263.334,141.514 263.501,145.514 264,149.5C 264.986,148.829 266.153,148.829 267.5,149.5C 267.83,165.342 267.496,181.009 266.5,196.5C 266.828,184.655 266.495,172.988 265.5,161.5C 266.569,158.592 266.736,155.592 266,152.5C 263.453,150.367 262.287,147.534 262.5,144C 262.504,141.639 262.837,139.473 263.5,137.5 Z"/></g>
<g><path style="opacity:1" fill="#453734" d="M 230.5,174.5 C 232.792,174.244 234.959,174.577 237,175.5C 237.273,182.867 237.773,190.2 238.5,197.5C 235.941,197.802 233.607,197.468 231.5,196.5C 231.167,196.5 230.833,196.5 230.5,196.5C 230.5,189.833 230.5,183.167 230.5,176.5C 230.5,175.833 230.5,175.167 230.5,174.5 Z"/></g>
<g><path style="opacity:1" fill="#ddc9c3" d="M 231.5,178.5 C 233.453,184.074 234.12,190.074 233.5,196.5C 232.833,196.5 232.167,196.5 231.5,196.5C 231.5,190.5 231.5,184.5 231.5,178.5 Z"/></g>
<g><path style="opacity:1" fill="#fdefea" d="M 227.5,196.5 C 226.209,196.737 225.209,196.404 224.5,195.5C 225.04,189.177 225.873,182.844 227,176.5C 227.5,183.158 227.666,189.825 227.5,196.5 Z"/></g>
<g><path style="opacity:1" fill="#f7e8e5" d="M 230.5,176.5 C 230.5,183.167 230.5,189.833 230.5,196.5C 229.833,196.5 229.167,196.5 228.5,196.5C 227.874,189.416 228.541,182.75 230.5,176.5 Z"/></g>
<g><path style="opacity:1" fill="#f9f4f0" d="M 111.5,175.5 C 111.5,182.5 111.5,189.5 111.5,196.5C 110.5,196.5 109.5,196.5 108.5,196.5C 108.5,194.167 108.5,191.833 108.5,189.5C 108.5,184.833 108.5,180.167 108.5,175.5C 109.5,175.5 110.5,175.5 111.5,175.5 Z"/></g>
<g><path style="opacity:1" fill="#7d675e" d="M 115.5,175.5 C 117.167,175.5 118.833,175.5 120.5,175.5C 120.228,182.471 120.894,189.304 122.5,196C 122.167,196.167 121.833,196.333 121.5,196.5C 120.686,194.234 120.186,191.9 120,189.5C 119.503,192.146 119.336,194.813 119.5,197.5C 115.5,197.5 111.5,197.5 107.5,197.5C 107.194,194.615 107.527,191.948 108.5,189.5C 108.5,191.833 108.5,194.167 108.5,196.5C 109.5,196.5 110.5,196.5 111.5,196.5C 111.833,196.5 112.167,196.5 112.5,196.5C 113.5,196.5 114.5,196.5 115.5,196.5C 115.5,189.833 115.5,183.167 115.5,176.5C 115.5,176.167 115.5,175.833 115.5,175.5 Z"/></g>
<g><path style="opacity:1" fill="#564a48" d="M 137.5,175.5 C 139.792,175.244 141.959,175.577 144,176.5C 145.122,188.475 145.622,200.475 145.5,212.5C 144.285,200.633 142.952,188.633 141.5,176.5C 140.833,181.651 140.166,186.651 139.5,191.5C 139.5,186.833 139.5,182.167 139.5,177.5C 138.833,176.833 138.167,176.167 137.5,175.5 Z"/></g>
<g><path style="opacity:1" fill="#ecdac6" d="M 115.5,176.5 C 115.5,183.167 115.5,189.833 115.5,196.5C 114.5,196.5 113.5,196.5 112.5,196.5C 112.5,189.833 112.5,183.167 112.5,176.5C 113.5,176.5 114.5,176.5 115.5,176.5 Z"/></g>
<g><path style="opacity:1" fill="#927c77" d="M 233.5,196.5 C 234.12,190.074 233.453,184.074 231.5,178.5C 231.766,174.921 233.099,174.587 235.5,177.5C 236.496,183.798 236.83,190.132 236.5,196.5C 235.5,196.5 234.5,196.5 233.5,196.5 Z"/></g>
<g><path style="opacity:1" fill="#b7a29b" d="M 255.5,196.5 C 252.5,196.5 249.5,196.5 246.5,196.5C 246.5,190.5 246.5,184.5 246.5,178.5C 247.5,178.5 248.5,178.5 249.5,178.5C 249.5,177.5 249.5,176.5 249.5,175.5C 250.833,175.5 252.167,175.5 253.5,175.5C 254.268,182.483 254.935,189.483 255.5,196.5 Z"/></g>
<g><path style="opacity:1" fill="#a79589" d="M 111.5,175.5 C 112.833,175.5 114.167,175.5 115.5,175.5C 115.5,175.833 115.5,176.167 115.5,176.5C 114.5,176.5 113.5,176.5 112.5,176.5C 112.5,183.167 112.5,189.833 112.5,196.5C 112.167,196.5 111.833,196.5 111.5,196.5C 111.5,189.5 111.5,182.5 111.5,175.5 Z"/></g>
<g><path style="opacity:1" fill="#e7ded9" d="M 88.5,175.5 C 89.5,175.5 90.5,175.5 91.5,175.5C 91.5,182.5 91.5,189.5 91.5,196.5C 90.5,196.5 89.5,196.5 88.5,196.5C 88.5,189.5 88.5,182.5 88.5,175.5 Z"/></g>
<g><path style="opacity:1" fill="#988d88" d="M 88.5,196.5 C 89.5,196.5 90.5,196.5 91.5,196.5C 91.5,189.5 91.5,182.5 91.5,175.5C 90.5,175.5 89.5,175.5 88.5,175.5C 89.4919,173.974 90.9919,173.307 93,173.5C 94.1667,173.833 95.3333,174.167 96.5,174.5C 97.1667,181.5 97.8333,188.5 98.5,195.5C 95.1513,197.403 91.8179,197.736 88.5,196.5 Z"/></g>
<g><path style="opacity:1" fill="#f1e6e1" d="M 139.5,177.5 C 139.5,182.167 139.5,186.833 139.5,191.5C 138.514,195.97 138.181,200.637 138.5,205.5C 137.343,197.344 137.177,189.01 138,180.5C 138.232,179.263 138.732,178.263 139.5,177.5 Z"/></g>
<g><path style="opacity:1" fill="#e4e2e2" d="M 171.5,191.5 C 173.465,191.948 173.798,192.948 172.5,194.5C 171.614,193.675 171.281,192.675 171.5,191.5 Z"/></g>
<g><path style="opacity:1" fill="#9a8b85" d="M 207.5,176.5 C 206.17,182.295 205.504,188.462 205.5,195C 205.328,204.382 205.994,213.549 207.5,222.5C 206.652,223.625 205.652,223.625 204.5,222.5C 204.167,222.5 203.833,222.5 203.5,222.5C 204.151,206.797 203.484,191.464 201.5,176.5C 201.97,175.307 202.97,174.64 204.5,174.5C 206.03,174.64 207.03,175.307 207.5,176.5 Z"/></g>
<g><path style="opacity:1" fill="#d6cdca" d="M 201.5,176.5 C 203.484,191.464 204.151,206.797 203.5,222.5C 202.833,222.5 202.167,222.5 201.5,222.5C 200.167,207.167 200.167,191.833 201.5,176.5 Z"/></g>
<g><path style="opacity:1" fill="#dddcdc" d="M 284.5,201.5 C 286.5,201.5 288.5,201.5 290.5,201.5C 290.5,202.5 290.5,203.5 290.5,204.5C 288.5,204.5 286.5,204.5 284.5,204.5C 284.5,203.5 284.5,202.5 284.5,201.5 Z"/></g>
<g><path style="opacity:1" fill="#dbdbd8" d="M 53.5,201.5 C 55.1667,201.5 56.8333,201.5 58.5,201.5C 58.5,202.5 58.5,203.5 58.5,204.5C 56.8333,204.5 55.1667,204.5 53.5,204.5C 53.5,203.5 53.5,202.5 53.5,201.5 Z"/></g>
<g><path style="opacity:1" fill="#f0eeec" d="M 64.5,201.5 C 76.5185,201.168 88.5185,201.501 100.5,202.5C 94.5,202.833 88.5,203.167 82.5,203.5C 76.1275,203.496 70.1275,202.829 64.5,201.5 Z"/></g>
<g><path style="opacity:1" fill="#f0ebe6" d="M 124.5,201.5 C 118.588,203.456 112.255,204.123 105.5,203.5C 111.412,201.544 117.745,200.877 124.5,201.5 Z"/></g>
<g><path style="opacity:1" fill="#f5f2f0" d="M 223.5,201.5 C 242.653,201.014 261.653,201.514 280.5,203C 271,203.167 261.5,203.333 252,203.5C 242.142,203.498 232.642,202.832 223.5,201.5 Z"/></g>
<g><path style="opacity:1" fill="#514d4a" d="M 124.5,201.5 C 125.404,202.209 125.737,203.209 125.5,204.5C 118.646,204.824 111.979,204.491 105.5,203.5C 112.255,204.123 118.588,203.456 124.5,201.5 Z"/></g>
<g><path style="opacity:1" fill="#c4c8c7" d="M 172.5,200.5 C 173.117,200.611 173.617,200.944 174,201.5C 174.497,204.146 174.664,206.813 174.5,209.5C 173.5,209.5 172.5,209.5 171.5,209.5C 171.264,206.391 171.597,203.391 172.5,200.5 Z"/></g>
<g><path style="opacity:1" fill="#ece5e1" d="M 133.5,175.5 C 133.5,183.167 133.5,190.833 133.5,198.5C 132.607,202.191 131.607,205.858 130.5,209.5C 130.5,209.167 130.5,208.833 130.5,208.5C 130.5,197.5 130.5,186.5 130.5,175.5C 131.5,175.5 132.5,175.5 133.5,175.5 Z"/></g>
<g><path style="opacity:1" fill="#8b7976" d="M 215.5,205.5 C 215.909,214.98 215.242,222.98 213.5,229.5C 212.5,229.5 211.5,229.5 210.5,229.5C 210.5,211.833 210.5,194.167 210.5,176.5C 211.583,176.461 212.583,176.127 213.5,175.5C 215.211,185.419 215.877,195.419 215.5,205.5 Z"/></g>
<g><path style="opacity:1" fill="#907d78" d="M 145.5,212.5 C 145.229,214.821 145.896,216.821 147.5,218.5C 146.959,220.535 146.292,222.535 145.5,224.5C 144.749,223.624 144.249,222.624 144,221.5C 143.818,224.226 143.318,226.893 142.5,229.5C 141.808,228.975 141.308,228.308 141,227.5C 140.29,228.973 139.124,229.64 137.5,229.5C 137.442,221.479 137.776,213.479 138.5,205.5C 138.181,200.637 138.514,195.97 139.5,191.5C 140.166,186.651 140.833,181.651 141.5,176.5C 142.952,188.633 144.285,200.633 145.5,212.5 Z"/></g>
<g><path style="opacity:1" fill="#d2d1d1" d="M 152.5,203.5 C 157.978,205.737 162.978,208.737 167.5,212.5C 166.635,213.583 165.635,213.749 164.5,213C 160.673,211.254 157.007,209.254 153.5,207C 152.663,205.989 152.33,204.822 152.5,203.5 Z"/></g>
<g><path style="opacity:1" fill="#342320" d="M 130.5,208.5 C 130.5,208.833 130.5,209.167 130.5,209.5C 130.5,216.167 130.5,222.833 130.5,229.5C 129.514,225.03 129.181,220.363 129.5,215.5C 126.167,215.5 122.833,215.5 119.5,215.5C 119.5,213.833 119.5,212.167 119.5,210.5C 118.5,210.5 117.5,210.5 116.5,210.5C 116.5,212.167 116.5,213.833 116.5,215.5C 116.226,220.263 116.559,224.93 117.5,229.5C 115.585,229.784 113.919,229.451 112.5,228.5C 113.5,228.5 114.5,228.5 115.5,228.5C 115.5,222.5 115.5,216.5 115.5,210.5C 114.5,210.5 113.5,210.5 112.5,210.5C 112.5,214.833 112.5,219.167 112.5,223.5C 112.167,223.5 111.833,223.5 111.5,223.5C 111.5,219.167 111.5,214.833 111.5,210.5C 110.167,210.5 108.833,210.5 107.5,210.5C 115.067,209.804 122.734,209.137 130.5,208.5 Z"/></g>
<g><path style="opacity:1" fill="#5a5858" d="M 261.5,210.5 C 263.265,209.539 265.265,209.205 267.5,209.5C 267.768,211.099 267.434,212.432 266.5,213.5C 266.5,212.5 266.5,211.5 266.5,210.5C 264.833,210.5 263.167,210.5 261.5,210.5 Z"/></g>
<g><path style="opacity:1" fill="#dad8d9" d="M 76.5,210.5 C 78.8333,210.5 81.1667,210.5 83.5,210.5C 83.7852,212.288 83.4519,213.955 82.5,215.5C 79.8249,214.479 77.8249,212.813 76.5,210.5 Z"/></g>
<g><path style="opacity:1" fill="#e7e5e4" d="M 261.5,210.5 C 263.167,210.5 264.833,210.5 266.5,210.5C 266.5,211.5 266.5,212.5 266.5,213.5C 264.5,213.833 262.5,214.167 260.5,214.5C 260.232,212.901 260.566,211.568 261.5,210.5 Z"/></g>
<g><path style="opacity:1" fill="#fcfcf9" d="M 53.5,210.5 C 55.1667,210.5 56.8333,210.5 58.5,210.5C 58.5,216.5 58.5,222.5 58.5,228.5C 56.8333,228.5 55.1667,228.5 53.5,228.5C 53.5,222.5 53.5,216.5 53.5,210.5 Z"/></g>
<g><path style="opacity:1" fill="#f5f4f3" d="M 64.5,210.5 C 66.5,210.5 68.5,210.5 70.5,210.5C 70.5,216.833 70.5,223.167 70.5,229.5C 68.5,229.5 66.5,229.5 64.5,229.5C 64.5,223.167 64.5,216.833 64.5,210.5 Z"/></g>
<g><path style="opacity:1" fill="#c7bab1" d="M 133.5,198.5 C 133.5,203.833 133.5,209.167 133.5,214.5C 133.5,219.5 133.5,224.5 133.5,229.5C 132.5,229.5 131.5,229.5 130.5,229.5C 130.5,222.833 130.5,216.167 130.5,209.5C 131.607,205.858 132.607,202.191 133.5,198.5 Z"/></g>
<g><path style="opacity:1" fill="#a0918b" d="M 133.5,175.5 C 134.833,175.5 136.167,175.5 137.5,175.5C 138.167,176.167 138.833,176.833 139.5,177.5C 138.732,178.263 138.232,179.263 138,180.5C 137.177,189.01 137.343,197.344 138.5,205.5C 137.776,213.479 137.442,221.479 137.5,229.5C 136.5,229.5 135.5,229.5 134.5,229.5C 134.821,224.305 134.487,219.305 133.5,214.5C 133.5,209.167 133.5,203.833 133.5,198.5C 133.5,190.833 133.5,183.167 133.5,175.5 Z"/></g>
<g><path style="opacity:1" fill="#f5f1ef" d="M 134.5,176.5 C 135.827,180.951 136.494,185.784 136.5,191C 136.333,195.833 136.167,200.667 136,205.5C 134.609,195.9 134.109,186.233 134.5,176.5 Z"/></g>
<g><path style="opacity:1" fill="#ecece9" d="M 273.5,210.5 C 275.5,210.5 277.5,210.5 279.5,210.5C 279.5,216.5 279.5,222.5 279.5,228.5C 277.167,228.5 274.833,228.5 272.5,228.5C 272.211,222.409 272.545,216.409 273.5,210.5 Z"/></g>
<g><path style="opacity:1" fill="#e8e3de" d="M 251.5,210.5 C 252.833,210.5 254.167,210.5 255.5,210.5C 256.099,213.948 255.099,216.614 252.5,218.5C 251.527,216.052 251.194,213.385 251.5,210.5 Z"/></g>
<g><path style="opacity:1" fill="#cdbcb7" d="M 207.5,176.5 C 207.5,191.833 207.5,207.167 207.5,222.5C 205.994,213.549 205.328,204.382 205.5,195C 205.504,188.462 206.17,182.295 207.5,176.5 Z"/></g>
<g><path style="opacity:1" fill="#a79491" d="M 207.5,176.5 C 208.5,176.5 209.5,176.5 210.5,176.5C 210.5,194.167 210.5,211.833 210.5,229.5C 208.81,229.758 206.81,229.758 204.5,229.5C 204.5,227.167 204.5,224.833 204.5,222.5C 205.652,223.625 206.652,223.625 207.5,222.5C 207.5,207.167 207.5,191.833 207.5,176.5 Z"/></g>
<g><path style="opacity:1" fill="#947e82" d="M 251.5,210.5 C 251.194,213.385 251.527,216.052 252.5,218.5C 250.645,219.69 248.812,221.023 247,222.5C 246.501,218.514 246.334,214.514 246.5,210.5C 248.167,210.5 249.833,210.5 251.5,210.5 Z"/></g>
<g><path style="opacity:1" fill="#f6eaea" d="M 225.5,210.5 C 227.442,215.056 228.108,220.056 227.5,225.5C 226.778,225.918 226.278,226.584 226,227.5C 225.501,221.843 225.334,216.176 225.5,210.5 Z"/></g>
<g><path style="opacity:1" fill="#e8e1e1" d="M 92.5,210.5 C 92.3677,213.57 92.701,216.57 93.5,219.5C 91.6096,219.703 90.1096,219.037 89,217.5C 88.5034,215.19 88.3367,212.857 88.5,210.5C 89.8333,210.5 91.1667,210.5 92.5,210.5 Z"/></g>
<g><path style="opacity:1" fill="#7b6b6c" d="M 92.5,210.5 C 93.8333,210.5 95.1667,210.5 96.5,210.5C 97.4603,214.195 97.4603,217.861 96.5,221.5C 95.2613,221.058 94.2613,220.391 93.5,219.5C 92.701,216.57 92.3677,213.57 92.5,210.5 Z"/></g>
<g><path style="opacity:1" fill="#e4e1e0" d="M 189.5,205.5 C 190.675,205.281 191.675,205.614 192.5,206.5C 178.947,214.44 165.281,221.44 151.5,227.5C 151.977,226.522 152.643,225.689 153.5,225C 165.721,218.726 177.721,212.226 189.5,205.5 Z"/></g>
<g><path style="opacity:1" fill="#f2e6e7" d="M 230.5,210.5 C 231.12,216.926 230.453,222.926 228.5,228.5C 227.88,222.074 228.547,216.074 230.5,210.5 Z"/></g>
<g><path style="opacity:1" fill="#aeaeac" d="M 285.5,210.5 C 285.5,216.167 285.5,221.833 285.5,227.5C 287.167,227.5 288.833,227.5 290.5,227.5C 290.5,221.833 290.5,216.167 290.5,210.5C 291.49,216.31 291.823,222.31 291.5,228.5C 289.167,228.5 286.833,228.5 284.5,228.5C 284.177,222.31 284.51,216.31 285.5,210.5 Z"/></g>
<g><path style="opacity:1" fill="#fefefa" d="M 285.5,210.5 C 287.167,210.5 288.833,210.5 290.5,210.5C 290.5,216.167 290.5,221.833 290.5,227.5C 288.833,227.5 287.167,227.5 285.5,227.5C 285.5,221.833 285.5,216.167 285.5,210.5 Z"/></g>
<g><path style="opacity:1" fill="#f0efee" d="M 76.5,218.5 C 78.258,218.877 79.9246,219.544 81.5,220.5C 82.4841,223.428 82.8174,226.428 82.5,229.5C 80.5,229.5 78.5,229.5 76.5,229.5C 76.5,225.833 76.5,222.167 76.5,218.5 Z"/></g>
<g><path style="opacity:1" fill="#bea09b" d="M 232.5,210.5 C 233.5,210.5 234.5,210.5 235.5,210.5C 236.12,216.926 235.453,222.926 233.5,228.5C 232.51,222.69 232.177,216.69 232.5,210.5 Z"/></g>
<g><path style="opacity:1" fill="#d5c6c1" d="M 112.5,228.5 C 112.5,226.833 112.5,225.167 112.5,223.5C 112.5,219.167 112.5,214.833 112.5,210.5C 113.5,210.5 114.5,210.5 115.5,210.5C 115.5,216.5 115.5,222.5 115.5,228.5C 114.5,228.5 113.5,228.5 112.5,228.5 Z"/></g>
<g><path style="opacity:1" fill="#c1ada2" d="M 119.5,215.5 C 119.5,216.167 119.5,216.833 119.5,217.5C 118.683,219.969 118.183,222.635 118,225.5C 117.821,221.975 117.321,218.641 116.5,215.5C 116.5,213.833 116.5,212.167 116.5,210.5C 117.5,210.5 118.5,210.5 119.5,210.5C 119.5,212.167 119.5,213.833 119.5,215.5 Z"/></g>
<g><path style="opacity:1" fill="#776562" d="M 198.5,217.5 C 199.793,219.364 199.793,221.364 198.5,223.5C 197.5,223.167 196.833,222.5 196.5,221.5C 197.18,220.14 197.847,218.807 198.5,217.5 Z"/></g>
<g><path style="opacity:1" fill="#796a65" d="M 116.5,215.5 C 117.321,218.641 117.821,221.975 118,225.5C 118.183,222.635 118.683,219.969 119.5,217.5C 120.089,221.971 119.423,225.971 117.5,229.5C 116.559,224.93 116.226,220.263 116.5,215.5 Z"/></g>
<g><path style="opacity:1" fill="#c5bdbb" d="M 179.5,220.5 C 184.571,221.595 188.904,223.929 192.5,227.5C 192.167,227.833 191.833,228.167 191.5,228.5C 186.679,226.778 182.679,224.111 179.5,220.5 Z"/></g>
<g><path style="opacity:1" fill="#cbc6c5" d="M 99.5,223.5 C 100.919,222.549 102.585,222.216 104.5,222.5C 104.719,223.675 104.386,224.675 103.5,225.5C 102.14,224.82 100.807,224.153 99.5,223.5 Z"/></g>
<g><path style="opacity:1" fill="#b8a8a6" d="M 107.5,210.5 C 108.833,210.5 110.167,210.5 111.5,210.5C 111.5,214.833 111.5,219.167 111.5,223.5C 111.5,225.167 111.5,226.833 111.5,228.5C 110.5,228.5 109.5,228.5 108.5,228.5C 107.693,222.536 107.36,216.536 107.5,210.5 Z"/></g>
<g><path style="opacity:1" fill="#fbf3ee" d="M 108.5,211.5 C 109.794,213.048 110.461,215.048 110.5,217.5C 110.167,219.5 109.833,221.5 109.5,223.5C 108.509,219.555 108.176,215.555 108.5,211.5 Z"/></g>
<g><path style="opacity:1" fill="#453836" d="M 215.5,205.5 C 216.588,207.516 217.588,209.683 218.5,212C 216.649,217.648 215.982,223.481 216.5,229.5C 215.5,229.5 214.5,229.5 213.5,229.5C 215.242,222.98 215.909,214.98 215.5,205.5 Z"/></g>
<g><path style="opacity:1" fill="#f3f2ed" d="M 265.5,218.5 C 267.402,221.337 268.069,224.671 267.5,228.5C 265.167,228.5 262.833,228.5 260.5,228.5C 260.337,226.143 260.503,223.81 261,221.5C 262.652,220.601 264.152,219.601 265.5,218.5 Z"/></g>
<g><path style="opacity:1" fill="#c7c3c3" d="M 88.5,224.5 C 98.5211,228.084 98.5211,229.75 88.5,229.5C 88.5,227.833 88.5,226.167 88.5,224.5 Z"/></g>
<g><path style="opacity:1" fill="#634c4a" d="M 230.5,210.5 C 231.167,210.5 231.833,210.5 232.5,210.5C 232.177,216.69 232.51,222.69 233.5,228.5C 231.833,229.833 230.167,229.833 228.5,228.5C 230.453,222.926 231.12,216.926 230.5,210.5 Z"/></g>
<g><path style="opacity:1" fill="#c6c0c2" d="M 241.5,224.5 C 243.975,224.747 243.975,225.413 241.5,226.5C 240.537,226.03 240.537,225.363 241.5,224.5 Z"/></g>
<g><path style="opacity:1" fill="#dcd7d8" d="M 251.5,225.5 C 252.5,225.5 253.5,225.5 254.5,225.5C 253.402,229.529 251.069,230.363 247.5,228C 248.858,227.066 250.192,226.232 251.5,225.5 Z"/></g>
<g><path style="opacity:1" fill="#7e7472" d="M 201.5,222.5 C 202.167,222.5 202.833,222.5 203.5,222.5C 203.5,224.833 203.5,227.167 203.5,229.5C 202.448,229.649 201.448,229.483 200.5,229C 201.423,226.959 201.756,224.792 201.5,222.5 Z"/></g>
<g><path style="opacity:1" fill="#a79c9b" d="M 225.5,210.5 C 225.334,216.176 225.501,221.843 226,227.5C 226.278,226.584 226.778,225.918 227.5,225.5C 227.5,226.5 227.5,227.5 227.5,228.5C 226.5,228.5 225.5,228.5 224.5,228.5C 224.177,222.31 224.51,216.31 225.5,210.5 Z"/></g>
<g><path style="opacity:1" fill="#bcb8b6" d="M 103.5,233.5 C 117.516,233.167 131.516,233.501 145.5,234.5C 145.291,235.086 144.957,235.586 144.5,236C 131.167,236.667 117.833,236.667 104.5,236C 103.748,235.329 103.414,234.496 103.5,233.5 Z"/></g>
<g><path style="opacity:1" fill="#b9b4b4" d="M 200.5,233.5 C 213.833,233.5 227.167,233.5 240.5,233.5C 240.5,234.5 240.5,235.5 240.5,236.5C 227.167,236.5 213.833,236.5 200.5,236.5C 200.5,235.5 200.5,234.5 200.5,233.5 Z"/></g>
<g><path style="opacity:1" fill="#807679" d="M 279.5,234.5 C 268.654,234.172 257.987,234.506 247.5,235.5C 246.957,235.44 246.624,235.107 246.5,234.5C 257.66,233.176 268.66,233.176 279.5,234.5 Z"/></g>
<g><path style="opacity:1" fill="#faf5f5" d="M 53.5,234.5 C 55.288,234.215 56.9547,234.548 58.5,235.5C 57.6667,235.833 56.8333,236.167 56,236.5C 54.6244,236.316 53.7911,235.649 53.5,234.5 Z"/></g>
<g><path style="opacity:1" fill="#faf7f8" d="M 73.5,233.5 C 81.3228,234.329 89.3228,234.829 97.5,235C 86.505,235.5 75.505,235.667 64.5,235.5C 67.3112,234.525 70.3112,233.858 73.5,233.5 Z"/></g>
<g><path style="opacity:1" fill="#9d9192" d="M 73.5,233.5 C 81.8333,233.5 90.1667,233.5 98.5,233.5C 98.5,234.5 98.5,235.5 98.5,236.5C 86.9877,236.828 75.6544,236.495 64.5,235.5C 75.505,235.667 86.505,235.5 97.5,235C 89.3228,234.829 81.3228,234.329 73.5,233.5 Z"/></g>
<g><path style="opacity:1" fill="#bbaeaf" d="M 279.5,234.5 C 274.544,235.828 269.211,236.495 263.5,236.5C 257.989,236.499 252.656,236.166 247.5,235.5C 257.987,234.506 268.654,234.172 279.5,234.5 Z"/></g>
<g><path style="opacity:1" fill="#dfd6d5" d="M 284.5,234.5 C 286.924,234.192 289.257,234.526 291.5,235.5C 290.333,235.833 289.167,236.167 288,236.5C 286.319,236.392 285.152,235.725 284.5,234.5 Z"/></g>
<g><path style="opacity:1" fill="#e5dfdc" d="M 171.5,226.5 C 172.824,230.107 173.491,234.107 173.5,238.5C 173.167,242.5 172.833,246.5 172.5,250.5C 171.502,242.528 171.169,234.528 171.5,226.5 Z"/></g>
<g><path style="opacity:1" fill="#fefefc" d="M 53.5,242.5 C 55.1667,242.5 56.8333,242.5 58.5,242.5C 58.5,248.5 58.5,254.5 58.5,260.5C 56.8333,260.5 55.1667,260.5 53.5,260.5C 53.5,254.5 53.5,248.5 53.5,242.5 Z"/></g>
<g><path style="opacity:1" fill="#fefefd" d="M 64.5,242.5 C 66.5,242.5 68.5,242.5 70.5,242.5C 70.5,248.5 70.5,254.5 70.5,260.5C 68.5,260.5 66.5,260.5 64.5,260.5C 64.5,254.5 64.5,248.5 64.5,242.5 Z"/></g>
<g><path style="opacity:1" fill="#eae9e8" d="M 76.5,241.5 C 78.8333,241.5 81.1667,241.5 83.5,241.5C 83.8242,245.555 83.4909,249.555 82.5,253.5C 80.5866,254.373 78.7533,255.373 77,256.5C 76.5007,251.511 76.3341,246.511 76.5,241.5 Z"/></g>
<g><path style="opacity:1" fill="#d2cac7" d="M 247.5,242.5 C 249.5,242.5 251.5,242.5 253.5,242.5C 253.808,244.924 253.474,247.257 252.5,249.5C 249.48,248.137 247.814,245.804 247.5,242.5 Z"/></g>
<g><path style="opacity:1" fill="#ece9e7" d="M 261.5,241.5 C 263.5,241.5 265.5,241.5 267.5,241.5C 267.5,246.167 267.5,250.833 267.5,255.5C 265.173,255.753 263.173,255.086 261.5,253.5C 260.235,249.454 260.235,245.454 261.5,241.5 Z"/></g>
<g><path style="opacity:1" fill="#faf9f5" d="M 278.5,242.5 C 278.5,248.5 278.5,254.5 278.5,260.5C 276.833,260.5 275.167,260.5 273.5,260.5C 273.5,254.5 273.5,248.5 273.5,242.5C 275.167,241.167 276.833,241.167 278.5,242.5 Z"/></g>
<g><path style="opacity:1" fill="#f5f4f3" d="M 290.5,242.5 C 290.5,248.5 290.5,254.5 290.5,260.5C 288.833,260.5 287.167,260.5 285.5,260.5C 284.51,254.69 284.177,248.69 284.5,242.5C 286.5,242.5 288.5,242.5 290.5,242.5 Z"/></g>
<g><path style="opacity:1" fill="#c5b8b2" d="M 204.5,242.5 C 205.167,242.5 205.833,242.5 206.5,242.5C 206.5,249.833 206.5,257.167 206.5,264.5C 204.537,257.576 203.87,250.243 204.5,242.5 Z"/></g>
<g><path style="opacity:1" fill="#e9e5e1" d="M 88.5,242.5 C 91.5623,242.844 94.5623,243.511 97.5,244.5C 96.5846,246.98 95.0846,247.647 93,246.5C 92.5172,247.448 92.3505,248.448 92.5,249.5C 91.325,249.719 90.325,249.386 89.5,248.5C 88.6518,246.591 88.3184,244.591 88.5,242.5 Z"/></g>
<g><path style="opacity:1" fill="#e1d3cd" d="M 111.5,243.5 C 112.128,250.913 111.461,257.913 109.5,264.5C 109.666,259.821 109.499,255.155 109,250.5C 107.893,251.712 107.393,251.379 107.5,249.5C 107.5,247.167 107.5,244.833 107.5,242.5C 109.099,242.232 110.432,242.566 111.5,243.5 Z"/></g>
<g><path style="opacity:1" fill="#e5e1e1" d="M 152.5,244.5 C 157.763,246.131 162.43,248.798 166.5,252.5C 164.813,253.568 163.146,253.401 161.5,252C 159.099,249.938 156.433,248.271 153.5,247C 152.748,246.329 152.414,245.496 152.5,244.5 Z"/></g>
<g><path style="opacity:1" fill="#e6e1df" d="M 188.5,246.5 C 189.873,246.343 191.207,246.51 192.5,247C 188.081,249.627 183.581,252.127 179,254.5C 178.251,253.365 178.417,252.365 179.5,251.5C 182.724,250.059 185.724,248.392 188.5,246.5 Z"/></g>
<g><path style="opacity:1" fill="#513935" d="M 227.5,242.5 C 227.833,242.5 228.167,242.5 228.5,242.5C 227.872,249.913 228.539,256.913 230.5,263.5C 230.209,264.649 229.376,265.316 228,265.5C 226.624,265.316 225.791,264.649 225.5,263.5C 227.461,256.913 228.128,249.913 227.5,242.5 Z"/></g>
<g><path style="opacity:1" fill="#8a716c" d="M 206.5,242.5 C 207.167,242.5 207.833,242.5 208.5,242.5C 208.5,249.833 208.5,257.167 208.5,264.5C 207.833,264.5 207.167,264.5 206.5,264.5C 206.5,257.167 206.5,249.833 206.5,242.5 Z"/></g>
<g><path style="opacity:1" fill="#937c79" d="M 215.5,264.5 C 214.167,264.5 212.833,264.5 211.5,264.5C 211.5,257.5 211.5,250.5 211.5,243.5C 212.568,242.566 213.901,242.232 215.5,242.5C 215.5,249.833 215.5,257.167 215.5,264.5 Z"/></g>
<g><path style="opacity:1" fill="#f5e6e1" d="M 228.5,242.5 C 229.167,242.5 229.833,242.5 230.5,242.5C 230.5,249.5 230.5,256.5 230.5,263.5C 228.539,256.913 227.872,249.913 228.5,242.5 Z"/></g>
<g><path style="opacity:1" fill="#847571" d="M 230.5,242.5 C 231.833,242.5 233.167,242.5 234.5,242.5C 234.5,250.167 234.5,257.833 234.5,265.5C 232.801,265.473 231.467,264.806 230.5,263.5C 230.5,256.5 230.5,249.5 230.5,242.5 Z"/></g>
<g><path style="opacity:1" fill="#877875" d="M 235.5,244.5 C 236.5,244.5 237.5,244.5 238.5,244.5C 238.5,251.5 238.5,258.5 238.5,265.5C 237.5,265.5 236.5,265.5 235.5,265.5C 235.5,258.5 235.5,251.5 235.5,244.5 Z"/></g>
<g><path style="opacity:1" fill="#ad8d7e" d="M 143.5,264.5 C 141.525,264.822 139.858,264.822 138.5,264.5C 138.5,257.5 138.5,250.5 138.5,243.5C 140.167,243.5 141.833,243.5 143.5,243.5C 143.5,250.5 143.5,257.5 143.5,264.5 Z"/></g>
<g><path style="opacity:1" fill="#baa09b" d="M 208.5,242.5 C 209.492,242.328 210.158,242.662 210.5,243.5C 211.128,250.913 210.461,257.913 208.5,264.5C 208.5,257.167 208.5,249.833 208.5,242.5 Z"/></g>
<g><path style="opacity:1" fill="#969594" d="M 290.5,242.5 C 291.49,248.645 291.823,254.978 291.5,261.5C 289.265,261.795 287.265,261.461 285.5,260.5C 287.167,260.5 288.833,260.5 290.5,260.5C 290.5,254.5 290.5,248.5 290.5,242.5 Z"/></g>
<g><path style="opacity:1" fill="#c6aea8" d="M 115.5,243.5 C 115.5,250.5 115.5,257.5 115.5,264.5C 114.179,261.402 113.512,257.902 113.5,254C 113.512,250.098 114.179,246.598 115.5,243.5 Z"/></g>
<g><path style="opacity:1" fill="#bcaf9f" d="M 135.5,243.5 C 137.461,250.087 138.128,257.087 137.5,264.5C 136.675,260.353 136.175,256.019 136,251.5C 135.825,256.019 135.325,260.353 134.5,264.5C 134.377,257.471 134.71,250.471 135.5,243.5 Z"/></g>
<g><path style="opacity:1" fill="#806b64" d="M 107.5,249.5 C 107.393,251.379 107.893,251.712 109,250.5C 109.499,255.155 109.666,259.821 109.5,264.5C 108.5,264.5 107.5,264.5 106.5,264.5C 106.179,259.305 106.513,254.305 107.5,249.5 Z"/></g>
<g><path style="opacity:1" fill="#594238" d="M 130.5,243.5 C 134.97,242.514 139.637,242.181 144.5,242.5C 144.825,250.019 144.492,257.352 143.5,264.5C 143.5,257.5 143.5,250.5 143.5,243.5C 141.833,243.5 140.167,243.5 138.5,243.5C 138.5,250.5 138.5,257.5 138.5,264.5C 138.167,264.5 137.833,264.5 137.5,264.5C 138.128,257.087 137.461,250.087 135.5,243.5C 133.833,243.5 132.167,243.5 130.5,243.5 Z"/></g>
<g><path style="opacity:1" fill="#e9ddda" d="M 227.5,242.5 C 228.128,249.913 227.461,256.913 225.5,263.5C 224.872,256.087 225.539,249.087 227.5,242.5 Z"/></g>
<g><path style="opacity:1" fill="#a8a6a3" d="M 273.5,242.5 C 273.5,248.5 273.5,254.5 273.5,260.5C 275.167,260.5 276.833,260.5 278.5,260.5C 278.5,254.5 278.5,248.5 278.5,242.5C 279.49,248.645 279.823,254.978 279.5,261.5C 277.167,261.5 274.833,261.5 272.5,261.5C 272.177,254.978 272.51,248.645 273.5,242.5 Z"/></g>
<g><path style="opacity:1" fill="#f3ede2" d="M 130.5,243.5 C 132.167,243.5 133.833,243.5 135.5,243.5C 134.71,250.471 134.377,257.471 134.5,264.5C 134.167,264.5 133.833,264.5 133.5,264.5C 133.839,259.07 133.339,253.736 132,248.5C 131.827,254.016 131.327,259.349 130.5,264.5C 130.5,257.5 130.5,250.5 130.5,243.5 Z"/></g>
<g><path style="opacity:1" fill="#604a43" d="M 115.5,243.5 C 114.179,246.598 113.512,250.098 113.5,254C 113.512,257.902 114.179,261.402 115.5,264.5C 113.5,265.833 111.5,265.833 109.5,264.5C 111.461,257.913 112.128,250.913 111.5,243.5C 112.961,242.314 114.295,242.314 115.5,243.5 Z"/></g>
<g><path style="opacity:1" fill="#888276" d="M 133.5,264.5 C 132.348,265.625 131.348,265.625 130.5,264.5C 131.327,259.349 131.827,254.016 132,248.5C 133.339,253.736 133.839,259.07 133.5,264.5 Z"/></g>
<g><path style="opacity:1" fill="#403525" d="M 137.5,264.5 C 136.366,266.781 135.032,266.781 133.5,264.5C 133.833,264.5 134.167,264.5 134.5,264.5C 135.325,260.353 135.825,256.019 136,251.5C 136.175,256.019 136.675,260.353 137.5,264.5 Z"/></g>
<g><path style="opacity:1" fill="#a3a09f" d="M 171.5,257.5 C 173.337,257.639 173.67,258.306 172.5,259.5C 171.702,259.043 171.369,258.376 171.5,257.5 Z"/></g>
<g><path style="opacity:1" fill="#9a847f" d="M 116.5,243.5 C 117.5,243.5 118.5,243.5 119.5,243.5C 119.5,250.833 119.5,258.167 119.5,265.5C 118.5,265.5 117.5,265.5 116.5,265.5C 116.5,258.167 116.5,250.833 116.5,243.5 Z"/></g>
<g><path style="opacity:1" fill="#e4dccf" d="M 92.5,255.5 C 93.552,255.351 94.552,255.517 95.5,256C 86.3475,262.08 76.6808,267.414 66.5,272C 65.365,272.749 64.365,272.583 63.5,271.5C 73.2909,266.437 82.9576,261.104 92.5,255.5 Z"/></g>
<g><path style="opacity:1" fill="#c9c6c5" d="M 248.5,255.5 C 258.684,260.424 269.017,265.091 279.5,269.5C 279.719,270.675 279.386,271.675 278.5,272.5C 268.009,267.267 258.009,261.6 248.5,255.5 Z"/></g>
<g><path style="opacity:1" fill="#403431" d="M 201.5,242.5 C 202.167,271.833 202.833,271.833 203.5,242.5C 203.833,242.5 204.167,242.5 204.5,242.5C 203.87,250.243 204.537,257.576 206.5,264.5C 207.167,264.5 207.833,264.5 208.5,264.5C 210.461,257.913 211.128,250.913 210.5,243.5C 210.833,243.5 211.167,243.5 211.5,243.5C 211.5,250.5 211.5,257.5 211.5,264.5C 212.833,264.5 214.167,264.5 215.5,264.5C 214.737,265.268 213.737,265.768 212.5,266C 208.514,266.499 204.514,266.666 200.5,266.5C 200.174,258.316 200.508,250.316 201.5,242.5 Z"/></g>
<g><path style="opacity:1" fill="#fbf5f2" d="M 201.5,242.5 C 202.167,242.5 202.833,242.5 203.5,242.5C 202.833,271.833 202.167,271.833 201.5,242.5 Z"/></g>
<g><path style="opacity:1" fill="#fdfcfc" d="M 53.5,267.5 C 55.1667,267.5 56.8333,267.5 58.5,267.5C 58.8174,270.572 58.4841,273.572 57.5,276.5C 56.2638,277.246 54.9305,277.579 53.5,277.5C 53.5,274.167 53.5,270.833 53.5,267.5 Z"/></g>
<g><path style="opacity:1" fill="#ebeaea" d="M 284.5,267.5 C 286.5,267.5 288.5,267.5 290.5,267.5C 290.5,270.5 290.5,273.5 290.5,276.5C 285.006,276.07 283.006,273.07 284.5,267.5 Z"/></g>
<g><path style="opacity:1" fill="#7d6f6d" d="M 231.5,268.5 C 213.976,268.838 196.643,269.838 179.5,271.5C 178.596,270.791 178.263,269.791 178.5,268.5C 196.167,268.5 213.833,268.5 231.5,268.5 Z"/></g>
<g><path style="opacity:1" fill="#49393c" d="M 94.5,268.5 C 93.7701,269.712 92.7701,270.712 91.5,271.5C 93.0453,272.452 94.712,272.785 96.5,272.5C 96.5,271.167 96.5,269.833 96.5,268.5C 97.4511,269.919 97.7845,271.585 97.5,273.5C 92.7325,273.809 88.0658,273.309 83.5,272C 86.6145,269.146 90.2811,267.979 94.5,268.5 Z"/></g>
<g><path style="opacity:1" fill="#b09f9c" d="M 231.5,268.5 C 233.167,268.5 234.833,268.5 236.5,268.5C 237.952,269.302 239.618,269.802 241.5,270C 238.896,270.39 236.562,271.224 234.5,272.5C 215.992,272.83 197.659,272.497 179.5,271.5C 196.643,269.838 213.976,268.838 231.5,268.5 Z"/></g>
<g><path style="opacity:1" fill="#b0a9ab" d="M 303.5,266.5 C 301.735,267.461 299.735,267.795 297.5,267.5C 297.5,271.5 297.5,275.5 297.5,279.5C 296.515,275.366 296.182,271.032 296.5,266.5C 298.833,266.5 301.167,266.5 303.5,266.5 Z"/></g>
<g><path style="opacity:1" fill="#ead7d4" d="M 103.5,269.5 C 124.5,269.5 145.5,269.5 166.5,269.5C 166.5,270.167 166.5,270.833 166.5,271.5C 145.14,272.155 124.14,271.489 103.5,269.5 Z"/></g>
<g><path style="opacity:1" fill="#e1d2d2" d="M 252.5,280.5 C 251.817,282.176 250.483,282.843 248.5,282.5C 248.5,281.5 248.5,280.5 248.5,279.5C 249.956,277.716 250.956,275.716 251.5,273.5C 250.5,273.5 249.5,273.5 248.5,273.5C 248.5,271.833 248.5,270.167 248.5,268.5C 249.93,268.579 251.264,268.246 252.5,267.5C 253.088,271.774 253.088,276.108 252.5,280.5 Z"/></g>
<g><path style="opacity:1" fill="#a09093" d="M 94.5,268.5 C 95.1667,268.5 95.8333,268.5 96.5,268.5C 96.5,269.833 96.5,271.167 96.5,272.5C 94.712,272.785 93.0453,272.452 91.5,271.5C 92.7701,270.712 93.7701,269.712 94.5,268.5 Z"/></g>
<g><path style="opacity:1" fill="#705857" d="M 103.5,269.5 C 124.14,271.489 145.14,272.155 166.5,271.5C 145.673,272.497 124.673,272.831 103.5,272.5C 102.167,271.5 102.167,270.5 103.5,269.5 Z"/></g>
<g><path style="opacity:1" fill="#625755" d="M 236.5,268.5 C 238.5,268.5 240.5,268.5 242.5,268.5C 242.5,269.833 242.5,271.167 242.5,272.5C 239.833,272.5 237.167,272.5 234.5,272.5C 236.562,271.224 238.896,270.39 241.5,270C 239.618,269.802 237.952,269.302 236.5,268.5 Z"/></g>
<g><path style="opacity:1" fill="#271414" d="M 166.5,269.5 C 167.434,270.568 167.768,271.901 167.5,273.5C 145.993,273.831 124.66,273.497 103.5,272.5C 124.673,272.831 145.673,272.497 166.5,271.5C 166.5,270.833 166.5,270.167 166.5,269.5 Z"/></g>
<g><path style="opacity:1" fill="#f7f3f3" d="M 273.5,277.5 C 275.306,278.024 276.972,278.691 278.5,279.5C 278.5,280.5 278.5,281.5 278.5,282.5C 276.833,282.5 275.167,282.5 273.5,282.5C 273.5,280.833 273.5,279.167 273.5,277.5 Z"/></g>
<g><path style="opacity:1" fill="#fcf9f6" d="M 97.5,281.5 C 90.6457,281.824 83.979,281.491 77.5,280.5C 80.9171,279.87 84.4171,279.537 88,279.5C 91.5758,279.515 94.7425,280.182 97.5,281.5 Z"/></g>
<g><path style="opacity:1" fill="#fdfbfa" d="M 103.5,279.5 C 124.167,279.5 144.833,279.5 165.5,279.5C 165.5,280.5 165.5,281.5 165.5,282.5C 144.833,282.5 124.167,282.5 103.5,282.5C 103.5,281.5 103.5,280.5 103.5,279.5 Z"/></g>
<g><path style="opacity:1" fill="#b2afae" d="M 47.5,267.5 C 48.6533,273.653 48.82,279.986 48,286.5C 47.2917,287.381 46.4584,288.047 45.5,288.5C 47.2585,281.665 47.9252,274.665 47.5,267.5 Z"/></g>
<g><path style="opacity:1" fill="#fbf8f7" d="M 179.5,279.5 C 200.5,279.5 221.5,279.5 242.5,279.5C 242.5,280.5 242.5,281.5 242.5,282.5C 221.5,282.5 200.5,282.5 179.5,282.5C 179.5,281.5 179.5,280.5 179.5,279.5 Z"/></g>
<g><path style="opacity:1" fill="#fdf1f1" d="M 257.5,280.5 C 269.5,281.167 269.5,281.833 257.5,282.5C 257.5,281.833 257.5,281.167 257.5,280.5 Z"/></g>
<g><path style="opacity:1" fill="#c0bab3" d="M 69.5,276.5 C 71.3435,278.279 72.0102,280.612 71.5,283.5C 69.1667,283.5 66.8333,283.5 64.5,283.5C 64.3433,282.127 64.51,280.793 65,279.5C 66.6516,278.601 68.1516,277.601 69.5,276.5 Z"/></g>
<g><path style="opacity:1" fill="#968d88" d="M 77.5,280.5 C 83.979,281.491 90.6457,281.824 97.5,281.5C 90.9131,283.461 83.9131,284.128 76.5,283.5C 76.2627,282.209 76.596,281.209 77.5,280.5 Z"/></g>
<g><path style="opacity:1" fill="#75706f" d="M 103.5,279.5 C 103.5,280.5 103.5,281.5 103.5,282.5C 124.167,282.5 144.833,282.5 165.5,282.5C 144.673,283.497 123.673,283.831 102.5,283.5C 102.232,281.901 102.566,280.568 103.5,279.5 Z"/></g>
<g><path style="opacity:1" fill="#a09796" d="M 257.5,280.5 C 260.625,279.521 263.958,279.187 267.5,279.5C 267.5,280.833 267.5,282.167 267.5,283.5C 263.958,283.813 260.625,283.479 257.5,282.5C 269.5,281.833 269.5,281.167 257.5,280.5 Z"/></g>
<g><path style="opacity:1" fill="#9b9290" d="M 273.5,277.5 C 273.5,279.167 273.5,280.833 273.5,282.5C 275.167,282.5 276.833,282.5 278.5,282.5C 278.5,281.5 278.5,280.5 278.5,279.5C 279.434,280.568 279.768,281.901 279.5,283.5C 277.167,283.5 274.833,283.5 272.5,283.5C 272.205,281.265 272.539,279.265 273.5,277.5 Z"/></g>
<g><path style="opacity:1" fill="#504b4a" d="M 165.5,279.5 C 166.451,280.919 166.784,282.585 166.5,284.5C 144.993,284.831 123.66,284.497 102.5,283.5C 123.673,283.831 144.673,283.497 165.5,282.5C 165.5,281.5 165.5,280.5 165.5,279.5 Z"/></g>
<g><path style="opacity:1" fill="#605c5b" d="M 179.5,279.5 C 179.5,280.5 179.5,281.5 179.5,282.5C 200.5,282.5 221.5,282.5 242.5,282.5C 221.526,284.489 200.193,285.156 178.5,284.5C 178.216,282.585 178.549,280.919 179.5,279.5 Z"/></g>
<g><path style="opacity:1" fill="#4b4444" d="M 248.5,279.5 C 248.5,280.5 248.5,281.5 248.5,282.5C 250.483,282.843 251.817,282.176 252.5,280.5C 253.391,281.261 254.058,282.261 254.5,283.5C 252.257,284.474 249.924,284.808 247.5,284.5C 247.216,282.585 247.549,280.919 248.5,279.5 Z"/></g>
<g><path style="opacity:1" fill="#e6deda" d="M 173.5,264.5 C 174.142,275.221 173.475,285.554 171.5,295.5C 171.168,284.813 171.501,274.146 172.5,263.5C 173.107,263.624 173.44,263.957 173.5,264.5 Z"/></g>
<g><path style="opacity:1" fill="#4d4743" d="M 173.5,264.5 C 174.33,274.659 174.83,284.992 175,295.5C 176.087,293.068 176.587,293.402 176.5,296.5C 174.585,296.784 172.919,296.451 171.5,295.5C 173.475,285.554 174.142,275.221 173.5,264.5 Z"/></g>
</svg>
